<svg width="50" height="50" viewBox="0 0 50 50" fill="none" xmlns="http://www.w3.org/2000/svg">
<path d="M22.9163 18.75H27.083V12.5H33.333V8.33331H27.083V2.08331H22.9163V8.33331H16.6663V12.5H22.9163M14.583 37.5C12.2913 37.5 10.4163 39.375 10.4163 41.6666C10.4163 43.9583 12.2913 45.8333 14.583 45.8333C16.8747 45.8333 18.7497 43.9583 18.7497 41.6666C18.7497 39.375 16.8747 37.5 14.583 37.5ZM35.4163 37.5C33.1247 37.5 31.2497 39.375 31.2497 41.6666C31.2497 43.9583 33.1247 45.8333 35.4163 45.8333C37.708 45.8333 39.583 43.9583 39.583 41.6666C39.583 39.375 37.708 37.5 35.4163 37.5ZM14.9997 30.8333V30.625L16.8747 27.0833H32.2913C33.7497 27.0833 35.208 26.25 35.833 25L43.958 10.4166L40.4163 8.33331L32.2913 22.9166H17.708L8.95801 4.16665H2.08301V8.33331H6.24967L13.7497 24.1666L10.833 29.1666C10.6247 29.7916 10.4163 30.4166 10.4163 31.25C10.4163 33.5416 12.2913 35.4166 14.583 35.4166H39.583V31.25H15.4163C15.208 31.25 14.9997 31.0416 14.9997 30.8333Z" fill="#484526"/>
</svg>
