<svg width="26" height="24" viewBox="0 0 26 24" fill="none" xmlns="http://www.w3.org/2000/svg">
<path d="M10.5 1.5H8.25C7.65326 1.5 7.08097 1.73705 6.65901 2.15901C6.23705 2.58097 6 3.15326 6 3.75V20.25C6 20.8467 6.23705 21.419 6.65901 21.841C7.08097 22.2629 7.65326 22.5 8.25 22.5H15.75C16.3467 22.5 16.919 22.2629 17.341 21.841C17.7629 21.419 18 20.8467 18 20.25V3.75C18 3.15326 17.7629 2.58097 17.341 2.15901C16.919 1.73705 16.3467 1.5 15.75 1.5H13.5M10.5 1.5V3H13.5V1.5M10.5 1.5H13.5M10.5 20.25H13.5" stroke="#D79D66" stroke-width="1.5" stroke-linecap="round" stroke-linejoin="round"/>
<rect width="12" height="11.7968" transform="translate(14 6.61621)" fill="white"/>
<path d="M15 11.5315C18 8.25449 22 8.25449 25 11.5315M17 13.4977C18.8 11.5315 21.2 11.5315 23 13.4977" stroke="#D79D66" stroke-width="2" stroke-linecap="round" stroke-linejoin="round"/>
<path d="M20 15.9553C20.2761 15.9553 20.5 15.7353 20.5 15.4638C20.5 15.1923 20.2761 14.9723 20 14.9723C19.7239 14.9723 19.5 15.1923 19.5 15.4638C19.5 15.7353 19.7239 15.9553 20 15.9553Z" stroke="#D79D66" stroke-width="2" stroke-linecap="round" stroke-linejoin="round"/>
</svg>
