<svg width="24" height="24" viewBox="0 0 24 24" fill="none" xmlns="http://www.w3.org/2000/svg">
<path d="M22.2803 14.4697L20.0303 12.2197C19.8896 12.0791 19.6989 12.0002 19.5 12.0002C19.3011 12.0002 19.1104 12.0791 18.9697 12.2197L12 19.1895V22.5H15.3105L22.2803 15.5303C22.4209 15.3896 22.4998 15.1989 22.4998 15C22.4998 14.8011 22.4209 14.6104 22.2803 14.4697ZM14.6895 21H13.5V19.8105L17.25 16.0605L18.4395 17.25L14.6895 21ZM19.5 16.1895L18.3105 15L19.5 13.8105L20.6895 15L19.5 16.1895ZM15 9.75V8.25H13.3935C13.3236 7.98155 13.2163 7.72428 13.0748 7.48575L14.2125 6.348L13.152 5.2875L12.0142 6.42525C11.7757 6.28369 11.5184 6.17639 11.25 6.1065V4.5H9.75V6.1065C9.48156 6.17639 9.22429 6.28369 8.98575 6.42525L7.848 5.2875L6.7875 6.348L7.92525 7.48575C7.78366 7.72428 7.67635 7.98155 7.6065 8.25H6V9.75H7.6065C7.67635 10.0184 7.78366 10.2757 7.92525 10.5142L6.7875 11.652L7.848 12.7125L8.98575 11.5747C9.22429 11.7163 9.48156 11.8236 9.75 11.8935V13.5H11.25V11.8935C11.5184 11.8236 11.7757 11.7163 12.0142 11.5747L13.152 12.7125L14.2125 11.652L13.0748 10.5142C13.2163 10.2757 13.3236 10.0184 13.3935 9.75H15ZM10.5 10.5C10.2033 10.5 9.91332 10.412 9.66664 10.2472C9.41997 10.0824 9.22771 9.84811 9.11418 9.57403C9.00065 9.29994 8.97094 8.99834 9.02882 8.70736C9.0867 8.41639 9.22956 8.14912 9.43934 7.93934C9.64912 7.72956 9.91639 7.5867 10.2074 7.52882C10.4983 7.47094 10.7999 7.50065 11.074 7.61418C11.3481 7.72771 11.5824 7.91997 11.7472 8.16664C11.912 8.41332 12 8.70333 12 9C11.9996 9.3977 11.8414 9.779 11.5602 10.0602C11.279 10.3414 10.8977 10.4996 10.5 10.5Z" fill="#D79D66"/>
<path d="M9 22.5H4.5C4.1023 22.4996 3.721 22.3414 3.43978 22.0602C3.15856 21.779 3.0004 21.3977 3 21V3C3.0004 2.6023 3.15856 2.221 3.43978 1.93978C3.721 1.65856 4.1023 1.5004 4.5 1.5H16.5C16.8977 1.5004 17.279 1.65856 17.5602 1.93978C17.8414 2.221 17.9996 2.6023 18 3V10.5H16.5V3H4.5V21H9V22.5Z" fill="#D79D66"/>
</svg>
