<svg width="24" height="24" viewBox="0 0 24 24" fill="none" xmlns="http://www.w3.org/2000/svg">
<path d="M7.1312 19.184L1.6 12.8V11.2H22.4V12.8L16.8064 19.184H7.1312ZM6.3808 4C6.3808 3.78783 6.29652 3.58434 6.14649 3.43432C5.99646 3.28429 5.79298 3.2 5.5808 3.2C5.36863 3.2 5.16515 3.28429 5.01512 3.43432C4.86509 3.58434 4.7808 3.78783 4.7808 4V4.9072L1.9056 5.496C1.8513 5.50278 1.79896 5.52064 1.75183 5.54846C1.70471 5.57628 1.66379 5.61347 1.63161 5.65774C1.59944 5.70201 1.57669 5.75241 1.56477 5.80583C1.55286 5.85924 1.55203 5.91453 1.56234 5.96828C1.57265 6.02202 1.59388 6.07308 1.62472 6.1183C1.65555 6.16351 1.69534 6.20191 1.74161 6.23113C1.78788 6.26035 1.83966 6.27977 1.89374 6.28817C1.94782 6.29658 2.00304 6.2938 2.056 6.28L4.7808 5.8368V6.7424L1.9808 6.8C1.87472 6.8 1.77298 6.84214 1.69796 6.91716C1.62295 6.99217 1.5808 7.09391 1.5808 7.2C1.5808 7.30609 1.62295 7.40783 1.69796 7.48284C1.77298 7.55786 1.87472 7.6 1.9808 7.6L4.7808 7.6576V9.5968H6.3808V4ZM21.5808 6.4L9.5808 6.8208V4.792L21.7312 3.0736C21.9364 3.03043 22.1164 2.90846 22.2325 2.73392C22.3487 2.55938 22.3916 2.34623 22.3522 2.14032C22.3128 1.93441 22.1941 1.7522 22.0217 1.6329C21.8493 1.5136 21.637 1.46674 21.4304 1.5024L9.568 3.928C9.54967 3.72445 9.45351 3.53581 9.29956 3.40139C9.14561 3.26697 8.94573 3.19713 8.74157 3.20641C8.5374 3.21569 8.34469 3.30338 8.20357 3.45121C8.06244 3.59905 7.9838 3.79562 7.984 4V4.3648L7.1936 4.5248V5.088L7.9824 4.96V6.8752L7.1936 6.8912V7.6288L21.5808 8C21.793 8 21.9965 7.91572 22.1465 7.76569C22.2965 7.61566 22.3808 7.41217 22.3808 7.2C22.3808 6.98783 22.2965 6.78434 22.1465 6.63432C21.9965 6.48429 21.793 6.4 21.5808 6.4ZM16 20.8H8V21.7216H16V20.8Z" fill="#D79D66"/>
</svg>
