<svg width="50" height="50" viewBox="0 0 50 50" fill="none" xmlns="http://www.w3.org/2000/svg">
<path d="M43.75 27.2917C43.5417 27.2917 43.125 27.5 42.9167 27.7083L40.8333 29.7917L45.2083 34.1667L47.2917 32.0833C47.7083 31.6667 47.7083 30.8333 47.2917 30.4167L44.5833 27.7083C44.375 27.5 44.1667 27.2917 43.75 27.2917ZM39.7917 31.0417L27.0833 43.5417V47.9167H31.4583L44.1667 35.2083L39.7917 31.0417ZM43.75 6.25H27.0833V18.75H43.75V6.25ZM39.5833 14.5833H31.25V10.4167H39.5833V14.5833ZM27.0833 37.625V22.9167H43.75V23.125C42.1667 23.125 40.7708 23.9583 39.9792 24.7708L37.6458 27.0833H31.25V33.4792L27.0833 37.625ZM22.9167 6.25H6.25V27.0833H22.9167V6.25ZM18.75 22.9167H10.4167V10.4167H18.75V22.9167ZM22.9167 41.7917V31.25H6.25V43.75H22.9167V41.7917ZM18.75 39.5833H10.4167V35.4167H18.75V39.5833Z" fill="#D79D66"/>
</svg>
