<svg width="38" height="38" viewBox="0 0 38 38" fill="none" xmlns="http://www.w3.org/2000/svg">
<g clip-path="url(#clip0_435_20)">
<path d="M36.7529 10.1006L32.4397 6.71719C32.1466 6.52564 31.8279 6.37806 31.4935 6.27901C31.1604 6.16927 30.8137 6.10827 30.4638 6.09783H18.0489L19.5036 15.3421H30.4638C30.7616 15.3421 31.1339 15.2737 31.4917 15.1609C31.8494 15.0481 32.1945 14.8928 32.4379 14.7246L36.7511 11.3375C36.9963 11.1692 37.118 10.9455 37.118 10.72C37.118 10.4944 36.9963 10.2707 36.7529 10.1006ZM16.2328 2.40012H14.4167C14.1758 2.40012 13.9449 2.49752 13.7746 2.67088C13.6043 2.84425 13.5086 3.07938 13.5086 3.32455V9.79553H7.4501C7.14863 9.79553 6.77814 9.86394 6.42037 9.97857C6.06078 10.0895 5.71754 10.243 5.47418 10.4149L1.16094 13.7983C0.915761 13.9665 0.795898 14.1921 0.795898 14.4177C0.795898 14.6414 0.915761 14.8651 1.16094 15.037L5.47418 18.4241C5.71754 18.5924 6.06078 18.7477 6.42037 18.8586C6.77814 18.9714 7.14863 19.0398 7.4501 19.0398H13.5086V34.755C13.5086 35.0002 13.6043 35.2353 13.7746 35.4087C13.9449 35.5821 14.1758 35.6795 14.4167 35.6795H16.2328C16.4736 35.6795 16.7046 35.5821 16.8749 35.4087C17.0452 35.2353 17.1408 35.0002 17.1408 34.755V3.32455C17.1408 3.07938 17.0452 2.84425 16.8749 2.67088C16.7046 2.49752 16.4736 2.40012 16.2328 2.40012Z" fill="#D79D66"/>
</g>
<defs>
<clipPath id="clip0_435_20">
<rect width="36.3221" height="36.977" fill="white" transform="translate(0.795898 0.55127)"/>
</clipPath>
</defs>
</svg>
