<svg width="58" height="58" viewBox="0 0 58 58" fill="none" xmlns="http://www.w3.org/2000/svg">
<circle cx="29" cy="29" r="28" fill="#D79D66" stroke="#484526" stroke-width="2"/>
<path d="M29 1.8125C13.9852 1.8125 1.8125 13.9871 1.8125 28.9964C1.8125 44.0129 13.9852 56.1875 29 56.1875C44.0129 56.1875 56.1875 44.0129 56.1875 28.9964C56.1875 13.9816 44.0129 1.8125 29 1.8125ZM49.0716 44.7869C48.6071 45.26 48.0522 45.635 47.4399 45.8896C46.8276 46.1441 46.1704 46.273 45.5073 46.2686C43.3586 46.2686 41.0069 45.0524 38.7059 42.7514C37.806 41.8515 37.0058 41.0495 36.6343 40.5746C38.0879 39.9077 39.4383 39.0358 40.6444 37.9855L47.5228 43.239L42.2648 36.3506C43.3068 35.1305 44.1441 33.7496 44.7443 32.2616C45.1965 32.5797 46.0592 33.4406 47.0362 34.4185C50.8615 38.2447 51.6408 42.2177 49.0716 44.7869ZM48.3194 33.1361C46.8087 31.6263 45.9967 30.817 45.2953 30.4953C45.3324 29.5718 44.1008 29.2184 43.5997 29.9235C39.6774 35.4579 35.0347 36.8518 29 36.8518C22.9653 36.8518 18.3226 35.4588 14.3994 29.9235C13.8529 29.1532 12.4147 29.638 12.7328 30.7563C14.7927 38.0108 21.7953 42.2358 29 42.2358C31.0093 42.2323 33.0046 41.9005 34.9069 41.2534C35.2939 41.8987 36.0833 42.6889 37.4254 44.032C39.9167 46.5223 42.5367 47.8935 45.0352 48.0494C40.6979 51.7088 35.1045 53.9219 29 53.9219C15.2576 53.9219 4.07812 42.7406 4.07812 28.9964C4.07812 15.2567 15.2576 4.07812 29 4.07812C42.7415 4.07812 53.9219 15.2567 53.9219 28.9964C53.9219 32.4311 53.2186 35.7026 51.9562 38.6824C51.4107 36.9641 50.2724 35.0909 48.3194 33.1361Z" fill="white"/>
<path d="M19.0902 15.5748C16.5518 15.5748 14.0134 17.893 12.3296 22.5248C12.1628 22.9916 13.031 23.8326 13.466 23.3749C15.0991 21.6521 17.0521 20.9661 19.0911 20.9661C21.1302 20.9661 23.0822 21.6521 24.7162 23.3749C25.1503 23.8326 26.0194 22.9907 25.8526 22.5248C24.167 17.8921 21.6286 15.5748 19.0902 15.5748ZM38.9099 15.5748C36.3715 15.5748 33.8331 17.893 32.1484 22.5248C31.9816 22.9916 32.8507 23.8326 33.2848 23.3749C34.9188 21.6521 36.8708 20.9661 38.9099 20.9661C40.949 20.9661 42.901 21.6521 44.535 23.3749C44.9691 23.8326 45.8382 22.9907 45.6714 22.5248C43.9858 17.8921 41.4474 15.5748 38.9099 15.5748Z" fill="white"/>
</svg>
