<svg width="24" height="24" viewBox="0 0 24 24" fill="none" xmlns="http://www.w3.org/2000/svg">
<path d="M11.9999 20C11.7166 20 11.4792 19.904 11.2879 19.712C11.0959 19.5207 10.9999 19.2833 10.9999 19V7.825L6.1249 12.7C5.9249 12.9 5.68724 13 5.4119 13C5.13724 13 4.8999 12.9 4.6999 12.7C4.4999 12.5 4.3999 12.2667 4.3999 12C4.3999 11.7333 4.4999 11.5 4.6999 11.3L11.2999 4.7C11.3999 4.6 11.5082 4.529 11.6249 4.487C11.7416 4.44567 11.8666 4.425 11.9999 4.425C12.1332 4.425 12.2626 4.44567 12.3879 4.487C12.5126 4.529 12.6166 4.6 12.6999 4.7L19.2999 11.3C19.4999 11.5 19.5999 11.7333 19.5999 12C19.5999 12.2667 19.4999 12.5 19.2999 12.7C19.0999 12.9 18.8622 13 18.5869 13C18.3122 13 18.0749 12.9 17.8749 12.7L12.9999 7.825V19C12.9999 19.2833 12.9042 19.5207 12.7129 19.712C12.5209 19.904 12.2832 20 11.9999 20Z" fill="#DB944B"/>
</svg>
