<svg width="21" height="22" viewBox="0 0 21 22" fill="none" xmlns="http://www.w3.org/2000/svg">
<path d="M10.5 8.43717C10.0055 8.43736 9.52221 8.58536 9.11116 8.86246C8.70011 9.13956 8.37978 9.53331 8.19068 9.99394C8.00158 10.4546 7.9522 10.9614 8.04878 11.4503C8.14536 11.9392 8.38357 12.3883 8.73328 12.7407C9.08299 13.0932 9.52851 13.3332 10.0135 13.4304C10.4985 13.5275 11.0012 13.4776 11.458 13.2868C11.9148 13.0959 12.3052 12.7728 12.5799 12.3583C12.8546 11.9438 13.0012 11.4565 13.0012 10.9579C13.0008 10.2894 12.737 9.64836 12.268 9.17571C11.7991 8.70305 11.1631 8.43742 10.5 8.43717ZM16.3458 6.49957C16.2185 6.17435 16.0263 5.87897 15.7811 5.63176C15.5359 5.38454 15.2429 5.19076 14.9203 5.06243C13.9359 4.67066 11.5922 4.75856 10.5 4.75856C9.40781 4.75856 7.06641 4.66735 6.07922 5.06243C5.75664 5.19076 5.46367 5.38454 5.21846 5.63176C4.97325 5.87897 4.78104 6.17435 4.65375 6.49957C4.26562 7.492 4.35234 9.85729 4.35234 10.9575C4.35234 12.0577 4.26562 14.4201 4.65562 15.4159C4.78291 15.7411 4.97512 16.0364 5.22033 16.2837C5.46554 16.5309 5.75852 16.7247 6.08109 16.853C7.06547 17.2448 9.40922 17.1569 10.5019 17.1569C11.5945 17.1569 13.935 17.2481 14.9222 16.853C15.2448 16.7247 15.5377 16.5309 15.783 16.2837C16.0282 16.0364 16.2204 15.7411 16.3477 15.4159C16.7391 14.4234 16.6491 12.0581 16.6491 10.9579C16.6491 9.85777 16.7391 7.49578 16.3477 6.50004L16.3458 6.49957ZM10.5 14.8332C9.73978 14.8332 8.99663 14.6059 8.36453 14.1801C7.73243 13.7543 7.23976 13.149 6.94884 12.4409C6.65791 11.7328 6.58179 10.9536 6.73011 10.2019C6.87842 9.45021 7.2445 8.75972 7.78206 8.21776C8.31962 7.6758 9.00451 7.30672 9.75012 7.1572C10.4957 7.00767 11.2686 7.08441 11.9709 7.37772C12.6733 7.67103 13.2736 8.16772 13.696 8.805C14.1183 9.44227 14.3438 10.1915 14.3438 10.9579C14.3444 11.467 14.2454 11.9712 14.0524 12.4417C13.8595 12.9121 13.5764 13.3396 13.2193 13.6995C12.8623 14.0595 12.4383 14.3449 11.9717 14.5394C11.505 14.734 11.0049 14.8338 10.5 14.8332ZM14.5022 7.8247C14.3247 7.82479 14.1512 7.77182 14.0036 7.67249C13.856 7.57315 13.7409 7.43192 13.673 7.26664C13.605 7.10137 13.5871 6.91949 13.6217 6.74399C13.6563 6.5685 13.7417 6.40728 13.8671 6.28074C13.9926 6.15419 14.1525 6.06799 14.3265 6.03305C14.5006 5.99811 14.681 6.016 14.8449 6.08445C15.0089 6.15289 15.1491 6.26883 15.2477 6.41759C15.3463 6.56635 15.3989 6.74125 15.3989 6.92017C15.3994 7.03898 15.3766 7.15673 15.3319 7.26664C15.2871 7.37656 15.2213 7.4765 15.1382 7.56071C15.055 7.64492 14.9562 7.71176 14.8474 7.75738C14.7386 7.80301 14.6219 7.82653 14.5041 7.82659L14.5022 7.8247ZM18.75 0.372009H2.25C1.65326 0.372009 1.08097 0.611002 0.65901 1.03641C0.237053 1.46182 0 2.0388 0 2.64042L0 19.2755C0 19.8771 0.237053 20.4541 0.65901 20.8795C1.08097 21.3049 1.65326 21.5439 2.25 21.5439H18.75C19.3467 21.5439 19.919 21.3049 20.341 20.8795C20.7629 20.4541 21 19.8771 21 19.2755V2.64042C21 2.0388 20.7629 1.46182 20.341 1.03641C19.919 0.611002 19.3467 0.372009 18.75 0.372009ZM17.9475 14.077C17.887 15.2883 17.6128 16.3615 16.7358 17.2433C15.8588 18.1252 14.7952 18.4073 13.5952 18.465C12.3572 18.5354 8.64563 18.5354 7.40766 18.465C6.20625 18.404 5.14547 18.1271 4.26703 17.2433C3.38859 16.3596 3.1125 15.2859 3.05531 14.077C2.98547 12.8284 2.98547 9.08603 3.05531 7.83888C3.11578 6.62764 3.38672 5.55439 4.26703 4.67255C5.14734 3.7907 6.21094 3.51187 7.40766 3.45422C8.64563 3.3838 12.3572 3.3838 13.5952 3.45422C14.7966 3.51518 15.8606 3.79212 16.7358 4.67585C17.6109 5.55959 17.8903 6.63331 17.9475 7.84455C18.0173 9.08839 18.0173 12.8275 17.9475 14.077Z" fill="#484526"/>
</svg>
