<svg width="21" height="22" viewBox="0 0 21 22" fill="none" xmlns="http://www.w3.org/2000/svg">
<path d="M10.5 8.42081C10.0055 8.421 9.52221 8.569 9.11116 8.8461C8.70011 9.1232 8.37978 9.51696 8.19068 9.97758C8.00158 10.4382 7.9522 10.945 8.04878 11.4339C8.14536 11.9229 8.38357 12.3719 8.73328 12.7244C9.08299 13.0768 9.52851 13.3168 10.0135 13.414C10.4985 13.5112 11.0012 13.4612 11.458 13.2704C11.9148 13.0796 12.3052 12.7565 12.5799 12.342C12.8546 11.9274 13.0012 11.4401 13.0012 10.9416C13.0008 10.273 12.737 9.63201 12.268 9.15935C11.7991 8.6867 11.1631 8.42106 10.5 8.42081ZM16.3458 6.48321C16.2185 6.15799 16.0263 5.86262 15.7811 5.6154C15.5359 5.36818 15.2429 5.1744 14.9203 5.04607C13.9359 4.6543 11.5922 4.7422 10.5 4.7422C9.40781 4.7422 7.06641 4.65099 6.07922 5.04607C5.75664 5.1744 5.46367 5.36818 5.21846 5.6154C4.97325 5.86262 4.78104 6.15799 4.65375 6.48321C4.26562 7.47564 4.35234 9.84094 4.35234 10.9411C4.35234 12.0413 4.26562 14.4038 4.65562 15.3995C4.78291 15.7247 4.97512 16.0201 5.22033 16.2673C5.46554 16.5145 5.75852 16.7083 6.08109 16.8366C7.06547 17.2284 9.40922 17.1405 10.5019 17.1405C11.5945 17.1405 13.935 17.2317 14.9222 16.8366C15.2448 16.7083 15.5377 16.5145 15.783 16.2673C16.0282 16.0201 16.2204 15.7247 16.3477 15.3995C16.7391 14.4071 16.6491 12.0418 16.6491 10.9416C16.6491 9.84141 16.7391 7.47942 16.3477 6.48368L16.3458 6.48321ZM10.5 14.8168C9.73978 14.8168 8.99663 14.5895 8.36453 14.1637C7.73243 13.7379 7.23976 13.1327 6.94884 12.4246C6.65791 11.7165 6.58179 10.9373 6.73011 10.1856C6.87842 9.43386 7.2445 8.74336 7.78206 8.2014C8.31962 7.65944 9.00451 7.29037 9.75012 7.14084C10.4957 6.99132 11.2686 7.06806 11.9709 7.36136C12.6733 7.65467 13.2736 8.15136 13.696 8.78864C14.1183 9.42591 14.3438 10.1751 14.3438 10.9416C14.3444 11.4507 14.2454 11.9549 14.0524 12.4253C13.8595 12.8957 13.5764 13.3232 13.2193 13.6832C12.8623 14.0431 12.4383 14.3286 11.9717 14.5231C11.505 14.7176 11.0049 14.8174 10.5 14.8168ZM14.5022 7.80834C14.3247 7.80843 14.1512 7.75546 14.0036 7.65613C13.856 7.5568 13.7409 7.41556 13.673 7.25029C13.605 7.08501 13.5871 6.90313 13.6217 6.72763C13.6563 6.55214 13.7417 6.39093 13.8671 6.26438C13.9926 6.13783 14.1525 6.05163 14.3265 6.01669C14.5006 5.98175 14.681 5.99964 14.8449 6.06809C15.0089 6.13654 15.1491 6.25247 15.2477 6.40123C15.3463 6.54999 15.3989 6.72489 15.3989 6.90381C15.3994 7.02262 15.3766 7.14037 15.3319 7.25029C15.2871 7.36021 15.2213 7.46014 15.1382 7.54435C15.055 7.62856 14.9562 7.6954 14.8474 7.74103C14.7386 7.78665 14.6219 7.81017 14.5041 7.81023L14.5022 7.80834ZM18.75 0.355652H2.25C1.65326 0.355652 1.08097 0.594645 0.65901 1.02006C0.237053 1.44547 0 2.02245 0 2.62407L0 19.2591C0 19.8607 0.237053 20.4377 0.65901 20.8631C1.08097 21.2885 1.65326 21.5275 2.25 21.5275H18.75C19.3467 21.5275 19.919 21.2885 20.341 20.8631C20.7629 20.4377 21 19.8607 21 19.2591V2.62407C21 2.02245 20.7629 1.44547 20.341 1.02006C19.919 0.594645 19.3467 0.355652 18.75 0.355652ZM17.9475 14.0607C17.887 15.2719 17.6128 16.3451 16.7358 17.227C15.8588 18.1088 14.7952 18.391 13.5952 18.4486C12.3572 18.519 8.64563 18.519 7.40766 18.4486C6.20625 18.3877 5.14547 18.1107 4.26703 17.227C3.38859 16.3433 3.1125 15.2695 3.05531 14.0607C2.98547 12.8121 2.98547 9.06967 3.05531 7.82252C3.11578 6.61128 3.38672 5.53804 4.26703 4.65619C5.14734 3.77434 6.21094 3.49552 7.40766 3.43786C8.64563 3.36745 12.3572 3.36745 13.5952 3.43786C14.7966 3.49882 15.8606 3.77576 16.7358 4.6595C17.6109 5.54323 17.8903 6.61695 17.9475 7.82819C18.0173 9.07204 18.0173 12.8111 17.9475 14.0607Z" fill="#DB944B"/>
</svg>
