<svg width="32" height="25" viewBox="0 0 32 25" fill="none" xmlns="http://www.w3.org/2000/svg">
<path d="M2.26154 11.7749H15.8307V13.9689H2.26154V11.7749ZM0 6.29005H11.3077V8.48401H0V6.29005Z" fill="#D79D66"/>
<path d="M31.57 12.4397L28.1777 4.76088C28.0907 4.56351 27.9458 4.39529 27.761 4.27711C27.5763 4.15893 27.3598 4.09599 27.1386 4.09611H23.7463V1.90215C23.7463 1.61122 23.6271 1.3322 23.4151 1.12647C23.203 0.92075 22.9154 0.805176 22.6155 0.805176H4.5232V2.99913H21.4847V16.7728C20.9695 17.063 20.5185 17.4494 20.1579 17.9095C19.7973 18.3697 19.5342 18.8945 19.3837 19.4538H12.278C12.0028 18.4197 11.3483 17.5185 10.4371 16.9191C9.52596 16.3197 8.42074 16.0633 7.32863 16.1978C6.23652 16.3324 5.23249 16.8488 4.50474 17.6501C3.77699 18.4515 3.37549 19.4828 3.37549 20.5508C3.37549 21.6188 3.77699 22.6501 4.50474 23.4515C5.23249 24.2528 6.23652 24.7692 7.32863 24.9037C8.42074 25.0383 9.52596 24.7818 10.4371 24.1824C11.3483 23.583 12.0028 22.6818 12.278 21.6478H19.3837C19.6297 22.5892 20.1923 23.4243 20.9824 24.0207C21.7725 24.6172 22.7451 24.941 23.7463 24.941C24.7474 24.941 25.72 24.6172 26.5101 24.0207C27.3002 23.4243 27.8628 22.5892 28.1088 21.6478H30.5309C30.8308 21.6478 31.1184 21.5322 31.3304 21.3265C31.5425 21.1207 31.6616 20.8417 31.6616 20.5508V12.8719C31.6617 12.7233 31.6305 12.5763 31.57 12.4397ZM7.9155 22.7447C7.46821 22.7447 7.03097 22.6161 6.65906 22.375C6.28715 22.1339 5.99729 21.7913 5.82612 21.3904C5.65495 20.9895 5.61016 20.5484 5.69742 20.1228C5.78468 19.6972 6.00007 19.3063 6.31635 18.9994C6.63264 18.6926 7.0356 18.4836 7.4743 18.399C7.91299 18.3143 8.36771 18.3578 8.78095 18.5238C9.1942 18.6899 9.5474 18.9711 9.7959 19.3319C10.0444 19.6927 10.177 20.1169 10.177 20.5508C10.1764 21.1325 9.93798 21.6902 9.51399 22.1015C9.09 22.5128 8.51511 22.7442 7.9155 22.7447ZM23.7463 6.29007H26.3923L28.8166 11.775H23.7463V6.29007ZM23.7463 22.7447C23.299 22.7447 22.8617 22.6161 22.4898 22.375C22.1179 22.1339 21.828 21.7913 21.6569 21.3904C21.4857 20.9895 21.4409 20.5484 21.5282 20.1228C21.6154 19.6972 21.8308 19.3063 22.1471 18.9994C22.4634 18.6926 22.8664 18.4836 23.305 18.399C23.7437 18.3143 24.1985 18.3578 24.6117 18.5238C25.0249 18.6899 25.3781 18.9711 25.6266 19.3319C25.8751 19.6927 26.0078 20.1169 26.0078 20.5508C26.0072 21.1325 25.7687 21.6902 25.3447 22.1015C24.9207 22.5128 24.3459 22.7442 23.7463 22.7447ZM29.4001 19.4538H28.1088C27.8597 18.5142 27.2962 17.6813 26.5067 17.0857C25.7172 16.4901 24.7463 16.1656 23.7463 16.1629V13.9689H29.4001V19.4538Z" fill="#D79D66"/>
</svg>
