<svg width="25" height="25" viewBox="0 0 25 25" fill="none" xmlns="http://www.w3.org/2000/svg">
<g clip-path="url(#clip0_286_44)">
<path d="M8.99531 1.67345C9.08335 1.72617 9.16014 1.79572 9.2213 1.87812C9.28246 1.96053 9.32678 2.05417 9.35174 2.15371C9.37669 2.25325 9.3818 2.35673 9.36675 2.45824C9.35171 2.55975 9.31681 2.6573 9.26406 2.74532L5.28594 9.37501H19.7141L15.7344 2.74532C15.6279 2.56754 15.5964 2.35474 15.6468 2.15372C15.6972 1.95271 15.8253 1.77995 16.0031 1.67345C16.1809 1.56695 16.3937 1.53543 16.5947 1.58583C16.7957 1.63623 16.9685 1.76442 17.075 1.9422L21.5359 9.37501H24.2188C24.426 9.37501 24.6247 9.45732 24.7712 9.60383C24.9177 9.75035 25 9.94906 25 10.1563V11.7188C25 11.926 24.9177 12.1247 24.7712 12.2712C24.6247 12.4177 24.426 12.5 24.2188 12.5H0.78125C0.57405 12.5 0.375336 12.4177 0.228823 12.2712C0.08231 12.1247 0 11.926 0 11.7188V10.1563C0 9.94906 0.08231 9.75035 0.228823 9.60383C0.375336 9.45732 0.57405 9.37501 0.78125 9.37501H3.46406L7.92188 1.9422C7.9746 1.85416 8.04414 1.77737 8.12655 1.71621C8.20895 1.65505 8.3026 1.61073 8.40214 1.58577C8.50168 1.56082 8.60516 1.55571 8.70667 1.57076C8.80818 1.5858 8.90573 1.62069 8.99375 1.67345H8.99531ZM5.30312 23.4375L2.99063 14.0625H1.475L3.85781 24.1031C3.91952 24.3587 4.06541 24.5862 4.27201 24.7489C4.47861 24.9115 4.73392 25 4.99687 25H20.0063C20.2695 25.0003 20.5251 24.912 20.7321 24.7493C20.939 24.5866 21.0851 24.359 21.1469 24.1031L23.525 14.0625H22.0062L19.6953 23.4375H5.30469H5.30312Z" fill="#484526"/>
</g>
<defs>
<clipPath id="clip0_286_44">
<rect width="25" height="25" fill="white"/>
</clipPath>
</defs>
</svg>
