<svg width="25" height="25" viewBox="0 0 25 25" fill="none" xmlns="http://www.w3.org/2000/svg">
<path d="M8.99531 0.777201C9.08335 0.830353 9.16014 0.900472 9.2213 0.983551C9.28246 1.06663 9.32678 1.16104 9.35174 1.2614C9.37669 1.36175 9.3818 1.46607 9.36675 1.56842C9.35171 1.67076 9.31681 1.76911 9.26406 1.85785L5.28594 8.5418H19.7141L15.7344 1.85785C15.6279 1.67862 15.5964 1.46407 15.6468 1.26141C15.6972 1.05875 15.8253 0.884574 16.0031 0.777201C16.1809 0.669828 16.3937 0.638054 16.5947 0.688866C16.7957 0.739679 16.9685 0.868918 17.075 1.04815L21.5359 8.5418H24.2188C24.426 8.5418 24.6247 8.62478 24.7712 8.77249C24.9177 8.92021 25 9.12055 25 9.32944V10.9047C25 11.1136 24.9177 11.314 24.7712 11.4617C24.6247 11.6094 24.426 11.6924 24.2188 11.6924H0.78125C0.57405 11.6924 0.375336 11.6094 0.228823 11.4617C0.08231 11.314 0 11.1136 0 10.9047V9.32944C0 9.12055 0.08231 8.92021 0.228823 8.77249C0.375336 8.62478 0.57405 8.5418 0.78125 8.5418H3.46406L7.92188 1.04815C7.9746 0.95939 8.04414 0.881969 8.12655 0.820313C8.20895 0.758656 8.3026 0.713971 8.40214 0.688809C8.50168 0.663648 8.60516 0.658504 8.70667 0.67367C8.80818 0.688837 8.90573 0.724017 8.99375 0.777201H8.99531ZM5.30312 22.7194L2.99063 13.2677H1.475L3.85781 23.3905C3.91952 23.6482 4.06541 23.8775 4.27201 24.0415C4.47861 24.2055 4.73392 24.2947 4.99687 24.2947H20.0063C20.2695 24.295 20.5251 24.206 20.7321 24.042C20.939 23.8779 21.0851 23.6484 21.1469 23.3905L23.525 13.2677H22.0062L19.6953 22.7194H5.30469H5.30312Z" fill="#DB944B"/>
</svg>
