<svg width="50" height="50" viewBox="0 0 50 50" fill="none" xmlns="http://www.w3.org/2000/svg">
<path d="M43.7501 18.7501H40.7918L33.0584 5.2168L29.4418 7.28346L35.9939 18.7501H14.0064L20.5605 7.28346L16.9418 5.2168L9.20844 18.7501H6.25011C5.92989 18.7505 5.61406 18.8246 5.32709 18.9667C5.04013 19.1087 4.78973 19.315 4.59532 19.5694C4.40091 19.8239 4.26771 20.1197 4.20603 20.4339C4.14436 20.7481 4.15588 21.0723 4.23969 21.3814L10.0709 42.7647C10.3133 43.6455 10.8378 44.4226 11.5641 44.9769C12.2903 45.5311 13.1782 45.832 14.0918 45.8335H35.9105C37.7814 45.8335 39.4355 44.573 39.9314 42.7605L45.7626 21.3793C45.8474 21.0701 45.8596 20.7455 45.7982 20.4309C45.7367 20.1163 45.6034 19.8201 45.4085 19.5655C45.2137 19.311 44.9626 19.1049 44.6749 18.9634C44.3872 18.822 44.0707 18.749 43.7501 18.7501ZM35.9084 41.6668H14.0918L8.97928 22.9168H41.0209L35.9084 41.6668Z" fill="#D79D66"/>
<path d="M18.75 27.0835H22.9167V37.5002H18.75V27.0835ZM27.0833 27.0835H31.25V37.5002H27.0833V27.0835Z" fill="#D79D66"/>
</svg>
