<svg width="25" height="25" viewBox="0 0 25 25" fill="none" xmlns="http://www.w3.org/2000/svg">
<path d="M8.99531 0.777079C9.08335 0.830231 9.16014 0.90035 9.2213 0.983429C9.28246 1.06651 9.32678 1.16092 9.35174 1.26127C9.37669 1.36163 9.3818 1.46595 9.36675 1.56829C9.35171 1.67063 9.31681 1.76898 9.26406 1.85773L5.28594 8.54168H19.7141L15.7344 1.85773C15.6279 1.67849 15.5964 1.46395 15.6468 1.26129C15.6972 1.05863 15.8253 0.884452 16.0031 0.777079C16.1809 0.669706 16.3937 0.637931 16.5947 0.688744C16.7957 0.739557 16.9685 0.868796 17.075 1.04803L21.5359 8.54168H24.2188C24.426 8.54168 24.6247 8.62466 24.7712 8.77237C24.9177 8.92008 25 9.12042 25 9.32932V10.9046C25 11.1135 24.9177 11.3138 24.7712 11.4616C24.6247 11.6093 24.426 11.6923 24.2188 11.6923H0.78125C0.57405 11.6923 0.375336 11.6093 0.228823 11.4616C0.08231 11.3138 0 11.1135 0 10.9046V9.32932C0 9.12042 0.08231 8.92008 0.228823 8.77237C0.375336 8.62466 0.57405 8.54168 0.78125 8.54168H3.46406L7.92188 1.04803C7.9746 0.959267 8.04414 0.881847 8.12655 0.820191C8.20895 0.758534 8.3026 0.713849 8.40214 0.688687C8.50168 0.663526 8.60516 0.658382 8.70667 0.673548C8.80818 0.688715 8.90573 0.723895 8.99375 0.777079H8.99531ZM5.30312 22.7193L2.99063 13.2675H1.475L3.85781 23.3903C3.91952 23.648 4.06541 23.8773 4.27201 24.0413C4.47861 24.2054 4.73392 24.2945 4.99687 24.2946H20.0063C20.2695 24.2949 20.5251 24.2059 20.7321 24.0418C20.939 23.8778 21.0851 23.6483 21.1469 23.3903L23.525 13.2675H22.0062L19.6953 22.7193H5.30469H5.30312Z" fill="#DB944B"/>
</svg>
