<svg width="38" height="38" viewBox="0 0 38 38" fill="none" xmlns="http://www.w3.org/2000/svg">
<path d="M24.0712 23.185C23.7702 23.185 23.4815 23.3068 23.2686 23.5235C23.0558 23.7402 22.9362 24.0341 22.9362 24.3406C22.9362 24.647 23.0558 24.9409 23.2686 25.1576C23.4815 25.3743 23.7702 25.4961 24.0712 25.4961H27.8548C28.1558 25.4961 28.4445 25.3743 28.6574 25.1576C28.8703 24.9409 28.9898 24.647 28.9898 24.3406C28.9898 24.0341 28.8703 23.7402 28.6574 23.5235C28.4445 23.3068 28.1558 23.185 27.8548 23.185H24.0712ZM3.26172 13.5556C3.26172 12.2276 3.77993 10.9539 4.70235 10.0149C5.62477 9.07583 6.87583 8.54828 8.18033 8.54828H28.6115C29.2574 8.54828 29.897 8.6778 30.4938 8.92944C31.0905 9.18108 31.6327 9.54991 32.0895 10.0149C32.5462 10.4799 32.9085 11.0319 33.1557 11.6394C33.4029 12.2469 33.5301 12.898 33.5301 13.5556V25.1109C33.5301 25.7685 33.4029 26.4196 33.1557 27.0271C32.9085 27.6346 32.5462 28.1866 32.0895 28.6516C31.6327 29.1166 31.0905 29.4854 30.4938 29.7371C29.897 29.9887 29.2574 30.1182 28.6115 30.1182H8.18033C6.87583 30.1182 5.62477 29.5907 4.70235 28.6516C3.77993 27.7126 3.26172 26.4389 3.26172 25.1109V13.5556ZM31.26 15.4815V13.5556C31.26 12.8405 30.9809 12.1547 30.4842 11.6491C29.9876 11.1434 29.3139 10.8593 28.6115 10.8593H8.18033C7.47791 10.8593 6.80426 11.1434 6.30757 11.6491C5.81088 12.1547 5.53185 12.8405 5.53185 13.5556V15.4815H31.26ZM5.53185 17.7925V25.1109C5.53185 26.5992 6.71837 27.8071 8.18033 27.8071H28.6115C29.3139 27.8071 29.9876 27.5231 30.4842 27.0174C30.9809 26.5118 31.26 25.826 31.26 25.1109V17.7925H5.53185Z" fill="#D79D66"/>
<g clip-path="url(#clip0_435_5)">
<rect width="18.4404" height="18.773" transform="translate(18.6753 0.844559)" fill="white"/>
<path d="M27.8955 18.4416C27.8955 18.4416 34.8096 16.0954 34.8096 10.2297" stroke="#D79D66" stroke-width="1.5" stroke-linecap="round" stroke-linejoin="round"/>
<path d="M34.8096 10.2297V3.19096C34.8096 3.19096 32.5049 2.01784 27.8955 2.01784" stroke="#D79D66" stroke-width="1.5" stroke-linecap="round" stroke-linejoin="round"/>
<path d="M27.8955 18.4416C27.8955 18.4416 20.9814 16.0954 20.9814 10.2297" stroke="#D79D66" stroke-width="1.5" stroke-linecap="round" stroke-linejoin="round"/>
<path d="M20.9814 10.2297V3.19096C20.9814 3.19096 23.2861 2.01784 27.8955 2.01784" stroke="#D79D66" stroke-width="1.5" stroke-linecap="round" stroke-linejoin="round"/>
<path d="M32.5049 5.53722C27.8955 9.0566 26.7432 13.7491 26.7432 13.7491C26.7432 13.7491 25.5908 12.3489 24.4385 11.4029" stroke="#D79D66" stroke-width="1.5" stroke-linecap="round" stroke-linejoin="round"/>
</g>
<defs>
<clipPath id="clip0_435_5">
<rect width="18.4404" height="18.773" fill="white" transform="translate(18.6753 0.844559)"/>
</clipPath>
</defs>
</svg>
