<svg width="21" height="24" viewBox="0 0 21 24" fill="none" xmlns="http://www.w3.org/2000/svg">
<path d="M21 3.75V20.25C21 21.4922 19.9922 22.5 18.75 22.5H7.2375C7.69687 21.7313 8.2875 20.625 8.52188 19.7203C8.6625 19.1813 9.23906 16.9828 9.23906 16.9828C9.61406 17.7 10.7109 18.3047 11.8781 18.3047C15.3516 18.3047 17.85 15.1125 17.85 11.1469C17.85 7.34531 14.7469 4.5 10.7531 4.5C5.78437 4.5 3.15 7.83281 3.15 11.4656C3.15 13.1531 4.05 15.2531 5.48438 15.9234C5.70469 16.0266 5.81719 15.9797 5.86875 15.7687C5.90625 15.6094 6.10313 14.8266 6.1875 14.4656C6.21562 14.3484 6.20156 14.25 6.10781 14.1375C5.63438 13.5609 5.25 12.5016 5.25 11.5125C5.25 8.97188 7.17187 6.51562 10.4484 6.51562C13.275 6.51562 15.2578 8.44219 15.2578 11.1984C15.2578 14.3109 13.6875 16.4672 11.6391 16.4672C10.5094 16.4672 9.66562 15.5344 9.93281 14.3859C10.2562 13.0172 10.8844 11.5406 10.8844 10.5516C10.8844 8.06719 7.34531 8.40938 7.34531 11.7234C7.34531 12.7406 7.6875 13.4344 7.6875 13.4344C6.21562 19.6594 5.99531 19.7391 6.3 22.4625L6.40313 22.5H2.25C1.00781 22.5 0 21.4922 0 20.25V3.75C0 2.50781 1.00781 1.5 2.25 1.5H18.75C19.9922 1.5 21 2.50781 21 3.75Z" fill="#62615C"/>
</svg>
