<svg width="50" height="50" viewBox="0 0 50 50" fill="none" xmlns="http://www.w3.org/2000/svg">
<path d="M37.5003 27.0791H27.0837V37.4958C27.0837 38.0483 26.8642 38.5782 26.4735 38.9689C26.0828 39.3596 25.5529 39.5791 25.0003 39.5791C24.4478 39.5791 23.9179 39.3596 23.5272 38.9689C23.1365 38.5782 22.917 38.0483 22.917 37.4958V27.0791H12.5003C11.9478 27.0791 11.4179 26.8596 11.0272 26.4689C10.6365 26.0782 10.417 25.5483 10.417 24.9958C10.417 24.4433 10.6365 23.9134 11.0272 23.5227C11.4179 23.132 11.9478 22.9125 12.5003 22.9125H22.917V12.4958C22.917 11.9433 23.1365 11.4134 23.5272 11.0227C23.9179 10.632 24.4478 10.4125 25.0003 10.4125C25.5529 10.4125 26.0828 10.632 26.4735 11.0227C26.8642 11.4134 27.0837 11.9433 27.0837 12.4958V22.9125H37.5003C38.0529 22.9125 38.5828 23.132 38.9735 23.5227C39.3642 23.9134 39.5837 24.4433 39.5837 24.9958C39.5837 25.5483 39.3642 26.0782 38.9735 26.4689C38.5828 26.8596 38.0529 27.0791 37.5003 27.0791Z" fill="#484526"/>
</svg>
