<svg width="38" height="38" viewBox="0 0 38 38" fill="none" xmlns="http://www.w3.org/2000/svg">
<path d="M7.25661 18.4235C7.4584 18.5262 7.55929 18.5262 7.76108 18.5262C7.96287 18.5262 8.16466 18.4235 8.26555 18.4235L15.3282 14.2122C15.6309 14.0068 15.8326 13.6987 15.8326 13.2878C15.8326 12.8769 15.6309 12.5688 15.3282 12.3634L12.8058 10.8227L14.9246 6.91953C15.3282 6.20054 15.9335 5.58425 16.6398 5.1734C18.6577 4.04354 21.1801 4.86525 22.2899 6.91953C22.5926 7.4331 23.198 7.53582 23.7024 7.22768H23.8033C24.2069 6.91953 24.3078 6.30325 24.106 5.89239C23.5006 4.86525 22.6935 3.94083 21.6845 3.42726C18.6577 1.78383 14.9246 2.81097 13.3103 5.89239L10.4852 10.72C10.1825 11.2335 10.3843 11.8498 10.7879 12.1579L12.8058 13.3905L8.77003 15.8557V8.97381C8.77003 8.35753 8.36645 7.94667 7.76108 7.94667C7.25661 8.04939 6.85303 8.46024 6.85303 9.07653V17.6018C6.85303 17.9099 7.05482 18.2181 7.25661 18.4235Z" fill="#D79D66"/>
<path d="M33.1863 22.1212L29.655 15.7529C29.5541 15.5475 29.2514 15.3421 29.0496 15.2394C28.7469 15.1367 28.5451 15.2394 28.2425 15.3421L26.0228 16.6774V11.8498L31.572 15.2394C31.6729 15.2394 31.6729 15.3421 31.7738 15.3421C32.2782 15.5475 32.8836 15.3421 33.0854 14.8285C33.2872 14.3149 33.0854 13.6987 32.5809 13.4932L25.5183 9.17925C25.2156 8.97382 24.812 8.97382 24.5094 9.17925C24.1058 9.28196 24.0049 9.5901 24.0049 10.001V18.5262C24.0049 18.9371 24.1058 19.3479 24.4085 19.5534C24.7111 19.7588 25.1147 19.7588 25.4174 19.5534L28.3433 17.8072L31.3702 23.2511C32.0765 24.5863 32.0765 26.1271 31.3702 27.4623C30.7648 28.6949 29.4532 29.4139 28.1416 29.4139H27.2335C26.729 29.4139 26.0228 29.8248 26.0228 30.441C26.1237 31.0573 26.6281 31.4682 27.2335 31.4682H28.1416C30.2603 31.4682 32.1773 30.3383 33.1863 28.4895C34.2961 26.4352 34.2961 24.0728 33.1863 22.1212Z" fill="#D79D66"/>
<path d="M23.3998 29.5166L16.3372 25.2026C16.0345 24.9972 15.6309 24.9972 15.3282 25.2026C15.0256 25.4081 14.9247 25.7162 14.9247 26.1271V29.5166H9.98083C8.46741 29.4139 7.05488 28.5922 6.34862 27.1542C5.54146 25.7162 5.54146 23.8673 6.34862 22.4293C6.65131 21.9158 6.44952 21.2995 5.94504 20.9914C5.44057 20.6832 4.8352 20.8886 4.53252 21.4022C3.32178 23.5592 3.42268 26.1271 4.63341 28.1813C5.74325 30.1329 7.86204 31.3655 10.0817 31.3655H15.9336C16.539 31.3655 16.9426 30.9546 16.9426 30.3383V27.8732L20.9783 30.3383L15.3282 33.7279C15.0256 33.9333 14.8238 34.2415 14.8238 34.6523C14.8238 35.2686 15.3282 35.6795 15.8327 35.6795C16.0345 35.6795 16.1354 35.5767 16.3372 35.474L23.3998 31.16C23.6016 31.0573 23.7025 30.9546 23.8034 30.7492C24.1061 30.3383 23.9043 29.722 23.3998 29.5166Z" fill="#D79D66"/>
</svg>
