<svg width="50" height="50" viewBox="0 0 50 50" fill="none" xmlns="http://www.w3.org/2000/svg">
<path d="M29.3747 17.7083L24.9997 13.3333L20.6247 17.7083L17.708 14.7917L22.083 10.4167L17.708 6.04167L20.6247 3.125L24.9997 7.5L29.3747 3.125L32.2913 6.04167L27.9163 10.4167L32.2913 14.7917L29.3747 17.7083ZM14.583 37.5C16.8747 37.5 18.7497 39.375 18.7497 41.6667C18.7497 43.9583 16.8747 45.8333 14.583 45.8333C12.2913 45.8333 10.4163 43.9583 10.4163 41.6667C10.4163 39.375 12.2913 37.5 14.583 37.5ZM35.4163 37.5C37.708 37.5 39.583 39.375 39.583 41.6667C39.583 43.9583 37.708 45.8333 35.4163 45.8333C33.1247 45.8333 31.2497 43.9583 31.2497 41.6667C31.2497 39.375 33.1247 37.5 35.4163 37.5ZM14.9997 30.8333C14.9997 31.0417 15.208 31.25 15.4163 31.25H39.583V35.4167H14.583C12.2913 35.4167 10.4163 33.5417 10.4163 31.25C10.4163 30.4167 10.6247 29.7917 10.833 29.1667L13.5413 24.1667L6.24967 8.33333H2.08301V4.16667H8.95801L17.9163 22.9167H32.4997L40.6247 8.33333L44.1663 10.4167L36.0413 25C35.4163 26.25 33.958 27.0833 32.4997 27.0833H16.8747L14.9997 30.4167V30.8333Z" fill="#D79D66"/>
</svg>
