<svg width="38" height="37" viewBox="0 0 38 37" fill="none" xmlns="http://www.w3.org/2000/svg">
<g clip-path="url(#clip0_435_22)">
<path fill-rule="evenodd" clip-rule="evenodd" d="M25.4399 18.8259C25.5456 18.9333 25.6295 19.0608 25.6867 19.2012C25.7439 19.3416 25.7733 19.4921 25.7733 19.644C25.7733 19.796 25.7439 19.9465 25.6867 20.0869C25.6295 20.2273 25.5456 20.3548 25.4399 20.4622L18.6295 27.3954C18.5241 27.503 18.3988 27.5883 18.2609 27.6466C18.123 27.7049 17.9752 27.7348 17.8259 27.7348C17.6766 27.7348 17.5287 27.7049 17.3908 27.6466C17.2529 27.5883 17.1277 27.503 17.0222 27.3954L13.6171 23.9288C13.5115 23.8213 13.4278 23.6938 13.3707 23.5534C13.3136 23.413 13.2842 23.2626 13.2842 23.1106C13.2842 22.9587 13.3136 22.8083 13.3707 22.6679C13.4278 22.5275 13.5115 22.4 13.6171 22.2925C13.8302 22.0755 14.1193 21.9537 14.4207 21.9537C14.5699 21.9537 14.7177 21.9836 14.8556 22.0417C14.9935 22.0999 15.1188 22.1851 15.2243 22.2925L17.8259 24.9433L23.8326 18.8259C23.9381 18.7183 24.0633 18.6329 24.2012 18.5747C24.3391 18.5164 24.487 18.4865 24.6363 18.4865C24.7856 18.4865 24.9334 18.5164 25.0713 18.5747C25.2092 18.6329 25.3344 18.7183 25.4399 18.8259Z" fill="#D79D66"/>
<path d="M18.9607 2.31106C20.4659 2.31106 21.9095 2.91978 22.9738 4.0033C24.0381 5.08682 24.636 6.5564 24.636 8.08873V9.24426H13.2854V8.08873C13.2854 6.5564 13.8833 5.08682 14.9477 4.0033C16.012 2.91978 17.4555 2.31106 18.9607 2.31106ZM26.9062 9.24426V8.08873C26.9062 5.94346 26.0691 3.88606 24.579 2.36913C23.0889 0.852203 21.068 0 18.9607 0C16.8535 0 14.8325 0.852203 13.3424 2.36913C11.8524 3.88606 11.0153 5.94346 11.0153 8.08873V9.24426H3.06982V32.3549C3.06982 33.5808 3.54817 34.7564 4.39963 35.6232C5.2511 36.4901 6.40593 36.977 7.61008 36.977H30.3114C31.5155 36.977 32.6703 36.4901 33.5218 35.6232C34.3733 34.7564 34.8516 33.5808 34.8516 32.3549V9.24426H26.9062ZM5.33995 11.5553H32.5815V32.3549C32.5815 32.9678 32.3423 33.5557 31.9166 33.9891C31.4909 34.4225 30.9134 34.666 30.3114 34.666H7.61008C7.00801 34.666 6.43059 34.4225 6.00486 33.9891C5.57913 33.5557 5.33995 32.9678 5.33995 32.3549V11.5553Z" fill="#D79D66"/>
<rect width="15.6464" height="15.5585" transform="translate(21.5273 23.324)" fill="white"/>
<path d="M27.1084 30.617L23.1967 26.7274L22.5054 27.4149L25.7256 30.617H22.5054V31.1032C22.5054 32.9085 23.2266 34.6398 24.5103 35.9164C25.7941 37.1929 27.5352 37.9101 29.3507 37.9101C31.1662 37.9101 32.9073 37.1929 34.191 35.9164C35.4748 34.6398 36.196 32.9085 36.196 31.1032V30.617H27.1084ZM29.3507 36.9376C27.8797 36.9358 26.4629 36.3854 25.3802 35.3952C24.2976 34.4049 23.6278 33.0469 23.5033 31.5894H35.1985C35.074 33.047 34.4042 34.4051 33.3215 35.3953C32.2387 36.3856 30.8218 36.936 29.3507 36.9376Z" fill="#D79D66"/>
<path d="M32.2842 27.2136C32.0233 27.214 31.7642 27.2558 31.5166 27.3376C31.1529 26.8483 30.6792 26.4503 30.1333 26.1755C29.5874 25.9008 28.9845 25.7567 28.3726 25.755C27.5036 25.7525 26.6589 26.0401 25.9738 26.5718L23.6855 24.2964L22.9941 24.9839L25.9523 27.9254L26.298 27.5816C26.5698 27.3099 26.8931 27.0945 27.2492 26.9478C27.6053 26.8012 27.9872 26.7263 28.3726 26.7274C28.8132 26.7286 29.2478 26.8281 29.6445 27.0186C30.0413 27.2092 30.3899 27.4858 30.6648 27.8282C30.5605 27.9188 30.464 28.018 30.3763 28.1247C30.2391 28.2959 30.0647 28.4341 29.8663 28.5289C29.6678 28.6236 29.4504 28.6727 29.2302 28.6722H27.3947V29.6446H29.2302C29.5969 29.6454 29.959 29.5638 30.2895 29.4059C30.6201 29.2481 30.9105 29.018 31.1391 28.733C31.329 28.497 31.588 28.3256 31.8801 28.2424C32.1723 28.1591 32.4832 28.1681 32.77 28.2682C33.0568 28.3683 33.3052 28.5545 33.4809 28.8011C33.6567 29.0476 33.7511 29.3424 33.7511 29.6446H34.729C34.7282 29.0001 34.4704 28.3822 34.012 27.9265C33.5537 27.4707 32.9324 27.2144 32.2842 27.2136Z" fill="#D79D66"/>
</g>
<defs>
<clipPath id="clip0_435_22">
<rect width="36.3221" height="36.977" fill="white" transform="translate(0.799805)"/>
</clipPath>
</defs>
</svg>
