<svg width="21" height="22" viewBox="0 0 21 22" fill="none" xmlns="http://www.w3.org/2000/svg">
<path d="M20.79 18.7684L15.4425 13.3771C15.3277 13.2627 15.1783 13.1902 15.018 13.171C14.8577 13.1518 14.6957 13.1871 14.5575 13.2713C13.5929 13.8596 12.8732 14.7814 12.5325 15.8648C12.36 16.4093 11.73 16.6588 11.2425 16.3639L11.235 16.3563L11.2275 16.3488C8.88511 14.9324 6.92486 12.9561 5.52 10.5946C5.52 10.587 5.5125 10.5794 5.5125 10.5794C5.2125 10.0879 5.46 9.45279 6 9.27888C7.07693 8.93965 7.99253 8.21302 8.5725 7.2373C8.745 6.94997 8.7 6.58703 8.4675 6.34506L3.12 0.953794C3.00521 0.839367 2.85583 0.766822 2.69553 0.747647C2.53523 0.728473 2.37316 0.763765 2.235 0.847935C1.58109 1.24346 1.0351 1.79683 0.646236 2.45816C0.257372 3.11949 0.0378636 3.86799 0.00749999 4.63619V4.64375C-6.98492e-09 4.71936 0 4.79498 0 4.87059C0 4.97645 0.00749999 5.07475 0.015 5.17305C0.104252 8.16723 0.953826 11.0883 2.4825 13.6569C3.885 16.0161 5.85 17.9972 8.19 19.4111L8.1975 19.4187C10.7775 20.9839 13.7175 21.8383 16.725 21.9064C16.785 21.9064 16.845 21.9139 16.905 21.9139H17.325V21.8988C18.0541 21.8366 18.7583 21.6013 19.38 21.2124C20.0018 20.8234 20.5235 20.2917 20.9025 19.6607C21.0675 19.3733 21.0225 19.0028 20.79 18.7684Z" fill="#62615C"/>
</svg>
