<svg xmlns="http://www.w3.org/2000/svg" xmlns:xlink="http://www.w3.org/1999/xlink" viewBox="0 0 231 238"><defs><style>.cls-1{fill:url(#Dégradé_sans_nom_16);}.cls-2{fill:#fff;stroke:#d79d66;stroke-miterlimit:10;}</style><linearGradient id="Dégradé_sans_nom_16" x1="110.24" y1="10.8" x2="111.22" y2="238.37" gradientUnits="userSpaceOnUse"><stop offset="0.03" stop-color="#d79d66"/><stop offset="1" stop-color="#62615c"/></linearGradient></defs><g id="Calque_3" data-name="Calque 3"><path class="cls-1" d="M48,9.89H214.45a4,4,0,0,1,4,4V191.52a45,45,0,0,1-45,45H7a4,4,0,0,1-4-4V54.89A45,45,0,0,1,48,9.89Z"/><path class="cls-2" d="M52.73,4.18H219.17a4,4,0,0,1,4,4V185.81a45,45,0,0,1-45,45H11.73a4,4,0,0,1-4-4V49.18a45,45,0,0,1,45-45Z"/></g></svg>