<svg id="Calque_1" data-name="Calque 1" xmlns="http://www.w3.org/2000/svg" xmlns:xlink="http://www.w3.org/1999/xlink" viewBox="0 0 268 446"><defs><style>.cls-1,.cls-3{fill:none;stroke-miterlimit:10;}.cls-1{stroke:#d79d66;}.cls-2{fill:url(#Dégradé_sans_nom_14);}.cls-3{stroke:#484526;}</style><linearGradient id="Dégradé_sans_nom_14" x1="129.8" y1="194.13" x2="130.85" y2="436.05" gradientUnits="userSpaceOnUse"><stop offset="0.03" stop-color="#d79d66"/><stop offset="0.61" stop-color="#62615c"/><stop offset="1" stop-color="#484526"/></linearGradient></defs><path class="cls-1" d="M50.81,9.51h200a4,4,0,0,1,4,4v217a45,45,0,0,1-45,45H9.81a4,4,0,0,1-4-4v-217A45,45,0,0,1,50.81,9.51Z"/><path class="cls-2" d="M50.31,193.22h205a0,0,0,0,1,0,0V389a45,45,0,0,1-45,45H9.31a4,4,0,0,1-4-4V238.22A45,45,0,0,1,50.31,193.22Z"/><path class="cls-3" d="M262,232l.24,164.79C259.81,422,238.81,440,219.07,440.49H45.92"/></svg>