<svg xmlns="http://www.w3.org/2000/svg" viewBox="0 0 315 515"><defs><style>.cls-1,.cls-3{fill:none;stroke-miterlimit:10;stroke-width:2px;}.cls-1{stroke:#d79d66;}.cls-2{fill:#484526;}.cls-3{stroke:#484526;}</style></defs><g id="Calque_2" data-name="Calque 2"><path class="cls-1" d="M52.47,6.39H294.54a4,4,0,0,1,4,4V272.33a45,45,0,0,1-45,45H11.47a4,4,0,0,1-4-4V51.39a45,45,0,0,1,45-45Z"/><path class="cls-2" d="M51.89,202.61H299.12a0,0,0,0,1,0,0v255a45,45,0,0,1-45,45H10.89a4,4,0,0,1-4-4v-251A45,45,0,0,1,51.89,202.61Z"/><path class="cls-3" d="M308,253l.35,206.1a51.79,51.79,0,0,1-51.79,51.79H58.21"/></g></svg>