<svg xmlns="http://www.w3.org/2000/svg" viewBox="0 0 481.78 352.83"><defs><style>.cls-1{fill:#fffffd;}.cls-2{fill:#fff;}</style></defs><g id="Logoblancsansfond"><ellipse class="cls-1" cx="428.58" cy="128.7" rx="0.62" ry="0.59"/><ellipse class="cls-1" cx="398.33" cy="94.45" rx="0.62" ry="0.59"/><path class="cls-2" d="M374.51,120.28c0,3.3.06,6,.06,8.18,0,.79-.34.79-.77.79h0c-.09,0-.27-.06-.37-.38a3.77,3.77,0,0,1,0-.73c0-.72-.07-1.8-.1-2.88a.59.59,0,0,0-1.12-.25,7.35,7.35,0,0,1-7.11,4.24c-4,0-7.67-1.85-7.67-10.07V95.05l.25-.24a.53.53,0,0,1,.72,0l.26.24v24.13c0,4.73,1.1,8.83,6.51,8.83,4.58,0,8.14-3.14,8.14-13.55V95a1.76,1.76,0,0,1,.62-.24.64.64,0,0,1,.62.3Z"/><circle class="cls-1" cx="373.89" cy="95.04" r="0.62"/><ellipse class="cls-1" cx="358.01" cy="95.04" rx="0.62" ry="0.59"/><path class="cls-2" d="M29.65,76.53A124.64,124.64,0,0,1,38.58,51.6a94.66,94.66,0,0,1,14.6-22.35A59.56,59.56,0,0,1,75.1,13.39a92.91,92.91,0,0,1,26.42-5.83,154.38,154.38,0,0,1,26.94.13,165.22,165.22,0,0,1,26.6,4.52A109.14,109.14,0,0,1,180.65,22a58.66,58.66,0,0,1,6,3.85c1,.73,1.94,1.48,2.87,2.31s1.84,1.73,2.64,2.58a49,49,0,0,1,4.62,5.59,40.81,40.81,0,0,1,3.75,6.37,35.61,35.61,0,0,1,3.59,14.69,33.46,33.46,0,0,1-3.18,15,38.67,38.67,0,0,1-9,12.13A45.68,45.68,0,0,1,186,89.16c-.53.36-1,.64-1.5.94l-1.42.89c-1.06.65-2.06,1.23-3.09,1.8a148.72,148.72,0,0,1-25.24,10.82,185.81,185.81,0,0,1-26.47,6.58A200.87,200.87,0,0,1,74,112.06a234.23,234.23,0,0,1-53-11.64l8.71-4-.45,1.21L28.71,99c-.31.91-.61,1.84-.89,2.78-.57,1.87-1.11,3.77-1.61,5.68q-1.49,5.75-2.57,11.62a181.25,181.25,0,0,0-2.78,23.67,163.68,163.68,0,0,0,4.31,47.15,152,152,0,0,0,18.06,43.53A172,172,0,0,0,73.46,270a234,234,0,0,0,38.6,28.55,271.26,271.26,0,0,0,43.29,21.32,243.39,243.39,0,0,0,46.4,12.71,239.79,239.79,0,0,0,23.92,2.72c8,.44,16.06.58,24.1.22a244.57,244.57,0,0,0,47.77-6.85,266.56,266.56,0,0,0,45.85-15.78l5.61-2.54c1.87-.84,3.64-1.68,5.45-2.57,3.6-1.77,7.15-3.68,10.65-5.69a222.48,222.48,0,0,0,20.32-13.18,210.59,210.59,0,0,0,18.81-15.32,194.15,194.15,0,0,0,16.89-17.41,184.85,184.85,0,0,0,26.44-40.62A173.34,173.34,0,0,0,462,169.07a197.9,197.9,0,0,0,1.88-49,197.34,197.34,0,0,0-10-48.33,160.56,160.56,0,0,1,7.84,23.58,206.46,206.46,0,0,1,4.74,24.47,200.44,200.44,0,0,1,.29,50,181.93,181.93,0,0,1-39.13,91.82,201.88,201.88,0,0,1-17.05,18.76,220.51,220.51,0,0,1-40.07,31c-3.63,2.19-7.32,4.29-11.1,6.26-1.88,1-3.82,2-5.7,2.86l-5.64,2.7a278.41,278.41,0,0,1-47.48,17.58,250.9,250.9,0,0,1-50.2,8.09,243.84,243.84,0,0,1-100.22-15.41,285.52,285.52,0,0,1-45.79-22.16A248.7,248.7,0,0,1,63.31,281a193.84,193.84,0,0,1-17.8-18.66,177.76,177.76,0,0,1-15-21.07,165,165,0,0,1-19.67-47.84A178.21,178.21,0,0,1,6.47,142a186.06,186.06,0,0,1,3.25-25.56q1.24-6.32,2.95-12.57c.57-2.08,1.18-4.15,1.84-6.23.33-1,.67-2.07,1-3.12L16.11,93l.64-1.69,2.37-6.19,6.34,2.24A228.16,228.16,0,0,0,75.33,99a195,195,0,0,0,25.56,1.28,185.83,185.83,0,0,0,25.49-2,173.9,173.9,0,0,0,24.94-5.59,138.25,138.25,0,0,0,23.53-9.43c.91-.48,1.82-1,2.65-1.47l1.41-.82c.45-.26.93-.53,1.31-.79a35.14,35.14,0,0,0,4.64-3.42,29,29,0,0,0,6.9-8.74,24.56,24.56,0,0,0,.3-21.39,31.3,31.3,0,0,0-2.79-5.1,37.13,37.13,0,0,0-3.64-4.72,25.26,25.26,0,0,0-2-2.1c-.69-.66-1.45-1.29-2.22-1.91a48.64,48.64,0,0,0-5-3.44A101.69,101.69,0,0,0,153,19.55a165,165,0,0,0-25.29-5.33A148.08,148.08,0,0,0,101.89,13a91.19,91.19,0,0,0-25.27,4.42A55.82,55.82,0,0,0,55.38,31.32,97.63,97.63,0,0,0,40,52.34,130.32,130.32,0,0,0,29.65,76.53Z"/><path class="cls-2" d="M88.9,128.94a6.29,6.29,0,0,1,1.35,2.4,11.2,11.2,0,0,1,.54,2.67,15.57,15.57,0,0,1-.68,5.32,40.84,40.84,0,0,1-1.59,5l-1.06,2.39-1.18,2.33-.19-.08.79-2.47.69-2.48a39.53,39.53,0,0,0,1-5c.23-1.68.14-3.35.25-5a29.15,29.15,0,0,0-.07-5Z"/><path class="cls-2" d="M128.76,288.68a66.15,66.15,0,0,0,9.09,7.72c.82.58,1.6,1.18,2.42,1.74l2.5,1.62c1.63,1.12,3.39,2.06,5.09,3.08a140.31,140.31,0,0,0,21.62,9.83l5.63,1.92c1.88.63,3.81,1.08,5.72,1.65,3.78,1.2,7.7,1.92,11.56,2.86,1.93.5,3.9.75,5.86,1.12l5.88,1.06c3.94.6,7.9,1,11.86,1.64-2-.08-4-.17-6-.3s-4-.19-6-.36l-6-.74c-2-.27-4-.47-5.94-.89-3.94-.77-7.9-1.45-11.77-2.56-1.93-.53-3.89-1-5.81-1.61l-5.72-1.91a118.12,118.12,0,0,1-21.74-10.37c-1.68-1.11-3.43-2.11-5-3.34l-2.44-1.78c-.8-.61-1.57-1.26-2.35-1.89A56.79,56.79,0,0,1,128.76,288.68Z"/><path class="cls-2" d="M328.74,68a54,54,0,0,0,1-14.31A46.06,46.06,0,0,0,327,40a38.9,38.9,0,0,0-6.86-11.71,43.68,43.68,0,0,0-10.28-8.69c-7.69-4.83-16.4-7.6-24.67-6.47A32.92,32.92,0,0,0,273.38,17a44.56,44.56,0,0,0-10.11,7.82A52.69,52.69,0,0,0,259,29.78c-1.39,1.77-2.7,3.62-4,5.51a106.34,106.34,0,0,0-6.82,11.82,134.94,134.94,0,0,0-9.56,25.78,152.83,152.83,0,0,0-4.59,27.22,146.2,146.2,0,0,0,.33,27.52,123.69,123.69,0,0,0,5.71,26.65A96.84,96.84,0,0,0,252,178.38a60,60,0,0,0,8.35,9.94,38.64,38.64,0,0,0,10.05,7.08,29.57,29.57,0,0,0,11.46,2.86,31.83,31.83,0,0,0,12-1.93,45.75,45.75,0,0,0,11.35-6.05,67.18,67.18,0,0,0,10-9,91.68,91.68,0,0,0,15-23.09,109.49,109.49,0,0,0,5.05-13.13l.51-1.69.26-.85a2.14,2.14,0,0,0,.08-.32,1.52,1.52,0,0,0,0-.67,1.27,1.27,0,0,0-.13-.32,1.19,1.19,0,0,0-.09-.15l0-.07-.14-.15a29.67,29.67,0,0,0-5.16-4.27,28.62,28.62,0,0,0-12.9-4.41,38,38,0,0,0-14.14,1.51A36.9,36.9,0,0,1,317.58,130,31.68,31.68,0,0,1,339,137.25l.19.16.26.25a5.07,5.07,0,0,1,.49.55,6.66,6.66,0,0,1,.8,1.23,6.83,6.83,0,0,1,.69,2.85,7.33,7.33,0,0,1-.12,1.48l-.17.91-.33,1.83a108.65,108.65,0,0,1-3.92,14.42,94.08,94.08,0,0,1-14.33,26.64,71.89,71.89,0,0,1-10.82,11.19A55.07,55.07,0,0,1,298,207.18a43.89,43.89,0,0,1-16.32,3.5,41,41,0,0,1-16.66-3.32,51.07,51.07,0,0,1-14-8.93,74.85,74.85,0,0,1-10.65-11.89,106.31,106.31,0,0,1-14.29-27.44,133.72,133.72,0,0,1-6.66-29.88,157.36,157.36,0,0,1-.21-30.38,161.23,161.23,0,0,1,5.65-29.77A139.1,139.1,0,0,1,236.5,41,115.4,115.4,0,0,1,244.75,28c1.53-2.06,3.14-4.07,4.84-6a66.06,66.06,0,0,1,5.54-5.7,53.71,53.71,0,0,1,13.38-9,41.94,41.94,0,0,1,15.91-4,40.8,40.8,0,0,1,8.2.48,42.65,42.65,0,0,1,7.81,2.12A52.88,52.88,0,0,1,314,13.65a49.7,49.7,0,0,1,10.71,11.14,41.6,41.6,0,0,1,6.16,14A50,50,0,0,1,328.74,68Z"/><path class="cls-2" d="M334.1,72.07c-1.05,2.58-2.2,5.05-3.42,7.52s-2.54,4.86-4,7.2A58.16,58.16,0,0,1,322,93.52a28.57,28.57,0,0,1-6,5.62,28.17,28.17,0,0,0,5.56-5.93,56.28,56.28,0,0,0,4.25-6.92c1.28-2.38,2.43-4.84,3.49-7.33s2.05-5,2.89-7.57Z"/><path class="cls-2" d="M330.25,71.62c-1.05,2.51-2.21,4.91-3.44,7.29s-2.55,4.72-4,7a56.63,56.63,0,0,1-4.73,6.49,28.38,28.38,0,0,1-5.91,5.36,27.77,27.77,0,0,0,5.52-5.68A54.74,54.74,0,0,0,322,85.37c1.28-2.31,2.43-4.69,3.5-7.1s2.06-4.88,2.91-7.34Z"/><path class="cls-2" d="M327.46,69.49c-1,2.51-2.2,4.91-3.43,7.3s-2.55,4.71-4,7a55.57,55.57,0,0,1-4.72,6.48,28.11,28.11,0,0,1-5.91,5.36,27.52,27.52,0,0,0,5.52-5.68,53.91,53.91,0,0,0,4.25-6.68c1.29-2.3,2.44-4.69,3.51-7.1s2.06-4.88,2.91-7.34Z"/><path class="cls-2" d="M323.08,72.09c-.95,2.13-2,4.16-3.09,6.17s-2.29,4-3.58,5.87a46.94,46.94,0,0,1-4.21,5.41A24.18,24.18,0,0,1,307,94a24.38,24.38,0,0,0,4.82-4.75,45.7,45.7,0,0,0,3.74-5.62c1.13-1.95,2.15-4,3.09-6s1.82-4.14,2.57-6.22Z"/><path class="cls-2" d="M305.83,132.85s-2.84-.63-3.62-1.92-7-1.94-11.9,3.23a31.81,31.81,0,0,0-7,10.74c-.39,1-1.3,4.14,4.14,4.14s12.93-4.27,15-8.15a7.81,7.81,0,0,0,1.43-4.14A5.42,5.42,0,0,1,305.83,132.85Z"/><path class="cls-2" d="M55.18,163.26c0,15.47-2.67,24.16-11.22,24.16-7.88,0-11.16-7.12-11.16-24.16,0-17.25,4.1-23.55,11.36-23.55S55.18,146.08,55.18,163.26ZM34,163.19c0,16.7,3.22,23.07,9.93,23.07,7.94,0,10-9,10-23,0-15.13-2.74-22.39-9.93-22.39C37.66,140.87,34,146.76,34,163.19Z"/><path class="cls-2" d="M63.39,140.33h1.24v25.46c3.83-5.27,12.39-17.46,18-25.46h1.44L70.17,159.9l15,26.9H83.73L69.42,160.93l-4.79,6.57v19.3H63.39Z"/><path class="cls-2" d="M350.27,111.52c0,13.48-4,17.73-9.51,17.73s-9.58-4-9.58-17.8,4.65-17.59,9.65-17.59C346.65,93.86,350.27,98.1,350.27,111.52Zm-17.86-.07c0,12.32,3.35,16.63,8.28,16.63,5.89,0,8.35-5.54,8.35-16.56,0-11.78-2.8-16.5-8.42-16.5C336.31,95,332.41,98.58,332.41,111.45Z"/><path class="cls-2" d="M383.27,106.18c0-6.53,0-9.85-.06-11.12a.58.58,0,0,1,.58-.59h0a.58.58,0,0,1,.58.57c0,.61,0,1.65,0,3a.82.82,0,0,0,1.52.43,9.28,9.28,0,0,1,7.4-4.65h0V95a.14.14,0,0,1-.12.14c-5.54.8-8.71,5.51-8.71,13.67V128.7h-1.23Z"/><path class="cls-2" d="M397.85,102.82c0-4.16-.07-6.68-.13-8.26a.08.08,0,0,1,.08-.09h1.06a.11.11,0,0,1,.09.09c0,.28.05,1.14.08,2.34a.68.68,0,0,0,1.25.33,7.19,7.19,0,0,1,6.4-3.37,6.6,6.6,0,0,1,6.4,3.9,1,1,0,0,0,1.71.07,7.6,7.6,0,0,1,6.95-4c3.42,0,7.46,1.37,7.46,9.24v25.6H428V103.3c0-4.79-1.58-8.28-6.3-8.28-5.2,0-7.53,4.52-7.53,10.88v22.8h-1.23V103.78c0-5.68-2.19-8.76-6.3-8.76-5.54,0-7.53,5.61-7.53,10.82V128.7h-1.23ZM384.5,128.7a.6.6,0,0,1-.62.59.59.59,0,1,1,0-1.18A.6.6,0,0,1,384.5,128.7Zm14.59,0a.6.6,0,0,1-.62.59.59.59,0,1,1,0-1.18A.6.6,0,0,1,399.09,128.7Z"/><path class="cls-2" d="M440.74,110.63a3.3,3.3,0,0,0-3.29,3.42c.35,9.21,2.72,14,8.11,14,6.15,0,7.27-5.9,7.54-7.9,0-.3.26-1.23.59-.52h.7c-.07.89-.89,9.59-8.83,9.59-8.9,0-9.38-10.75-9.38-18.14,0-11,3.29-17.25,9.38-17.25,6.92,0,9.11,5.47,9.11,15.19h0a1.58,1.58,0,0,1-1.58,1.58Zm9.43-1.1a3.17,3.17,0,0,0,3.18-3.33C453,99.67,451.27,95,445.56,95c-5.22,0-7.17,5.48-7.84,10.49a3.54,3.54,0,0,0,3.5,4Z"/><ellipse class="cls-2" cx="453.79" cy="119.75" rx="0.62" ry="0.59"/><ellipse class="cls-1" cx="393.33" cy="94.45" rx="0.62" ry="0.59"/><ellipse class="cls-1" cx="374.01" cy="128.7" rx="0.56" ry="0.59"/><path class="cls-2" d="M432.31,88.17c3.83-.41,7.65-.63,11.47-.77s7.65-.21,11.47-.23,7.65.06,11.47.22,7.65.37,11.47.78c-3.82.42-7.64.64-11.47.78s-7.64.2-11.47.22-7.64-.06-11.47-.22S436.14,88.59,432.31,88.17Z"/><circle class="cls-1" cx="413.57" cy="128.47" r="0.66"/><path class="cls-2" d="M320.65,72.38l12.81,1.29,1.42-4.14a2,2,0,0,0-2.07-2.2c-2.33-.13-2.81-4.16-2.81-4.16a6.17,6.17,0,0,1-4.95,4C321.3,67.59,320.65,72.38,320.65,72.38Z"/></g></svg>