<svg xmlns="http://www.w3.org/2000/svg" viewBox="0 0 481.78 352.83"><defs><style>.cls-1{fill:#fffffd;}.cls-2{fill:#fff;}</style></defs><g id="logo_blanc" data-name="logo blanc"><rect width="481.78" height="352.83"/><ellipse class="cls-1" cx="428.57" cy="128.42" rx="0.62" ry="0.59"/><ellipse class="cls-1" cx="398.32" cy="94.17" rx="0.62" ry="0.59"/><path class="cls-2" d="M374.49,120c0,3.3.06,6,.06,8.18,0,.79-.33.79-.76.79h0c-.1,0-.28-.06-.37-.38a3.11,3.11,0,0,1-.05-.72c0-.73-.07-1.81-.09-2.89a.59.59,0,0,0-1.13-.24A7.34,7.34,0,0,1,365,129c-4,0-7.66-1.85-7.66-10.06V94.77l.25-.23a.5.5,0,0,1,.71,0l.27.24v24.14c0,4.72,1.09,8.83,6.5,8.83,4.59,0,8.15-3.15,8.15-13.56V94.72a1.77,1.77,0,0,1,.61-.24c.31,0,.62.21.62.31Z"/><circle class="cls-1" cx="373.87" cy="94.76" r="0.62"/><ellipse class="cls-1" cx="357.99" cy="94.76" rx="0.62" ry="0.59"/><path class="cls-2" d="M29.64,76.26a123.86,123.86,0,0,1,8.92-24.94A94.91,94.91,0,0,1,53.16,29,59.58,59.58,0,0,1,75.08,13.11,92.91,92.91,0,0,1,101.5,7.28a155.36,155.36,0,0,1,26.94.13,165.34,165.34,0,0,1,26.61,4.52,109.14,109.14,0,0,1,25.59,9.82,59.77,59.77,0,0,1,6,3.85c1,.73,1.93,1.49,2.86,2.31s1.84,1.73,2.65,2.58a47.88,47.88,0,0,1,4.61,5.59,41.33,41.33,0,0,1,3.76,6.37,35.81,35.81,0,0,1,3.59,14.69,33.47,33.47,0,0,1-3.19,15,38.82,38.82,0,0,1-9.05,12.14A45.8,45.8,0,0,1,186,88.88c-.52.36-1,.64-1.49.94l-1.43.89c-1.05.65-2.06,1.23-3.08,1.8a149.07,149.07,0,0,1-25.24,10.82,185.65,185.65,0,0,1-26.48,6.59,201.2,201.2,0,0,1-54.35,1.86,234.64,234.64,0,0,1-53-11.63l8.7-4-.44,1.21-.47,1.36c-.3.91-.6,1.84-.89,2.78-.57,1.87-1.1,3.77-1.6,5.68-1,3.83-1.86,7.71-2.58,11.62a181.23,181.23,0,0,0-2.77,23.67,163.64,163.64,0,0,0,4.3,47.15,151.89,151.89,0,0,0,18.07,43.53A171.94,171.94,0,0,0,73.44,269.7a234.07,234.07,0,0,0,38.61,28.55,271.16,271.16,0,0,0,43.28,21.32,243.59,243.59,0,0,0,46.4,12.71A237.2,237.2,0,0,0,225.65,335c8,.44,16.07.58,24.1.22a244.46,244.46,0,0,0,47.77-6.85,267,267,0,0,0,45.86-15.78l5.61-2.53c1.87-.85,3.64-1.69,5.45-2.58,3.6-1.77,7.15-3.68,10.65-5.68a224.57,224.57,0,0,0,20.31-13.19,210.81,210.81,0,0,0,18.81-15.31,195.61,195.61,0,0,0,16.89-17.42,185,185,0,0,0,26.44-40.61A173.41,173.41,0,0,0,462,168.79a197.88,197.88,0,0,0,1.88-49,196.42,196.42,0,0,0-10-48.33A160.6,160.6,0,0,1,461.76,95a204.81,204.81,0,0,1,4.73,24.47,200,200,0,0,1,.29,50,182,182,0,0,1-39.13,91.83,204.37,204.37,0,0,1-17,18.75,220.68,220.68,0,0,1-19.13,16.64,222.18,222.18,0,0,1-21,14.35c-3.62,2.19-7.32,4.29-11.09,6.26-1.88,1-3.83,1.95-5.71,2.86l-5.64,2.7a278.1,278.1,0,0,1-47.48,17.58,251.65,251.65,0,0,1-50.19,8.1A243.82,243.82,0,0,1,150.2,333.13,284.37,284.37,0,0,1,104.4,311a249.12,249.12,0,0,1-41.11-30.29A193.63,193.63,0,0,1,45.5,262a177.05,177.05,0,0,1-15-21.08,165,165,0,0,1-19.68-47.84,178.57,178.57,0,0,1-4.34-51.38,187.84,187.84,0,0,1,3.26-25.56c.82-4.21,1.81-8.4,2.94-12.57.57-2.08,1.18-4.15,1.84-6.23.33-1,.68-2.07,1-3.12l.56-1.57L16.74,91,19.1,84.8,25.44,87a228.29,228.29,0,0,0,49.87,11.7A196.79,196.79,0,0,0,100.87,100a189.31,189.31,0,0,0,25.5-2,174.09,174.09,0,0,0,24.93-5.6A138.71,138.71,0,0,0,174.83,83c.91-.48,1.83-1,2.66-1.47l1.4-.83c.45-.26.93-.53,1.32-.79a35,35,0,0,0,4.63-3.42,28.8,28.8,0,0,0,6.9-8.74,24.49,24.49,0,0,0,.3-21.39,31.24,31.24,0,0,0-2.78-5.1,39.86,39.86,0,0,0-3.64-4.72,29,29,0,0,0-2-2.1c-.69-.66-1.44-1.29-2.21-1.91a49.75,49.75,0,0,0-5-3.44A101.88,101.88,0,0,0,153,19.27a165.2,165.2,0,0,0-25.29-5.33,148.15,148.15,0,0,0-25.86-1.19,91.48,91.48,0,0,0-25.26,4.42A55.88,55.88,0,0,0,55.36,31.05,97,97,0,0,0,40,52.06,129.74,129.74,0,0,0,29.64,76.26Z"/><path class="cls-2" d="M88.88,128.66a6.16,6.16,0,0,1,1.35,2.4,11.71,11.71,0,0,1,.55,2.68,15.8,15.8,0,0,1-.68,5.31,40.88,40.88,0,0,1-1.6,5l-1.06,2.39-1.18,2.33-.18-.08.79-2.47.68-2.48a37.85,37.85,0,0,0,1-5c.24-1.67.14-3.35.26-5a30.19,30.19,0,0,0-.07-5Z"/><path class="cls-2" d="M128.75,288.4a65.56,65.56,0,0,0,9.09,7.72c.81.58,1.59,1.18,2.42,1.74l2.49,1.62c1.64,1.12,3.39,2.06,5.09,3.08a139.8,139.8,0,0,0,21.62,9.83l5.63,1.92c1.88.63,3.82,1.09,5.72,1.65,3.79,1.2,7.7,1.92,11.57,2.86,1.92.5,3.9.75,5.85,1.12l5.88,1.06c3.94.6,7.91,1,11.87,1.64-2-.08-4-.17-6-.29s-4-.2-6-.37l-6-.74c-2-.27-4-.46-5.95-.89-3.94-.76-7.9-1.45-11.76-2.56-1.94-.53-3.9-1-5.81-1.61l-5.72-1.91A117.57,117.57,0,0,1,147,303.9c-1.67-1.11-3.42-2.11-5-3.34l-2.43-1.78c-.8-.6-1.57-1.25-2.35-1.89A56.32,56.32,0,0,1,128.75,288.4Z"/><path class="cls-2" d="M328.73,67.72a54,54,0,0,0,1-14.31A45.75,45.75,0,0,0,327,39.7,38.88,38.88,0,0,0,320.13,28a43.88,43.88,0,0,0-10.28-8.69c-7.7-4.83-16.41-7.59-24.68-6.47a33.33,33.33,0,0,0-11.8,3.91,44.63,44.63,0,0,0-10.11,7.82A54.08,54.08,0,0,0,259,29.5q-2.07,2.67-4,5.51a106.34,106.34,0,0,0-6.82,11.82,135.15,135.15,0,0,0-9.55,25.78,152.08,152.08,0,0,0-4.59,27.22,145.36,145.36,0,0,0,.32,27.52A123.56,123.56,0,0,0,240.09,154a97.18,97.18,0,0,0,11.85,24.1,61,61,0,0,0,8.35,10,38.72,38.72,0,0,0,10.06,7.07A29.57,29.57,0,0,0,281.8,198a31.66,31.66,0,0,0,12-1.93A45.36,45.36,0,0,0,305.12,190a67.25,67.25,0,0,0,10-9,91.51,91.51,0,0,0,15-23.09,108.8,108.8,0,0,0,5-13.13l.52-1.69.25-.85A2.23,2.23,0,0,0,336,142a1.52,1.52,0,0,0,0-.67,1.79,1.79,0,0,0-.13-.32,1.3,1.3,0,0,0-.1-.15l-.05-.07-.14-.15a28.82,28.82,0,0,0-5.16-4.26,28.44,28.44,0,0,0-12.9-4.42,37.79,37.79,0,0,0-14.14,1.52,36.72,36.72,0,0,1,14.2-3.73A31.62,31.62,0,0,1,339,137l.19.16.27.25c.17.18.34.36.49.55a6.61,6.61,0,0,1,.79,1.23,6.88,6.88,0,0,1,.7,2.85,8.06,8.06,0,0,1-.12,1.48l-.17.91-.34,1.83a106.21,106.21,0,0,1-3.92,14.43,93.91,93.91,0,0,1-14.33,26.63,71.37,71.37,0,0,1-10.81,11.19A55.25,55.25,0,0,1,298,206.9a43.79,43.79,0,0,1-16.33,3.5A41,41,0,0,1,265,207.08a51.07,51.07,0,0,1-14-8.93,74.35,74.35,0,0,1-10.64-11.89,105.7,105.7,0,0,1-14.29-27.44,133.19,133.19,0,0,1-6.67-29.88,157.25,157.25,0,0,1-.2-30.37,161.32,161.32,0,0,1,5.64-29.78,138.57,138.57,0,0,1,11.57-28.11,113.49,113.49,0,0,1,8.25-12.93c1.53-2.06,3.14-4.07,4.83-6a66.15,66.15,0,0,1,5.55-5.7A53.35,53.35,0,0,1,268.5,7a41.89,41.89,0,0,1,15.9-4,40.14,40.14,0,0,1,8.21.49,42.05,42.05,0,0,1,7.81,2.11A52.85,52.85,0,0,1,314,13.38a48.86,48.86,0,0,1,10.71,11.14,41.27,41.27,0,0,1,6.16,14A50.1,50.1,0,0,1,328.73,67.72Z"/><path class="cls-2" d="M334.08,71.79c-1,2.58-2.19,5-3.42,7.52s-2.54,4.87-4,7.2A57.23,57.23,0,0,1,322,93.24,28.57,28.57,0,0,1,316,98.86a28.58,28.58,0,0,0,5.55-5.92A56.56,56.56,0,0,0,325.81,86c1.28-2.39,2.43-4.85,3.49-7.34s2.05-5,2.9-7.56Z"/><path class="cls-2" d="M330.23,71.34c-1.05,2.51-2.21,4.91-3.44,7.3s-2.54,4.71-4,7a54.93,54.93,0,0,1-4.73,6.49,27.86,27.86,0,0,1-5.91,5.36,27.77,27.77,0,0,0,5.52-5.68,53.56,53.56,0,0,0,4.26-6.68c1.28-2.3,2.43-4.69,3.5-7.1s2.06-4.88,2.91-7.34Z"/><path class="cls-2" d="M327.45,69.22c-1.05,2.5-2.21,4.9-3.44,7.29s-2.54,4.71-4,7A55.65,55.65,0,0,1,315.29,90a27.91,27.91,0,0,1-5.91,5.37,28,28,0,0,0,5.52-5.68A55.52,55.52,0,0,0,319.16,83c1.28-2.31,2.43-4.69,3.5-7.11s2.06-4.88,2.91-7.34Z"/><path class="cls-2" d="M323.06,71.82C322.12,74,321.08,76,320,78s-2.28,4-3.58,5.87a45.86,45.86,0,0,1-4.21,5.41A24.37,24.37,0,0,1,307,93.69a24.06,24.06,0,0,0,4.81-4.75,47,47,0,0,0,3.75-5.62c1.13-1.95,2.14-4,3.08-6s1.82-4.14,2.57-6.22Z"/><path class="cls-2" d="M305.81,132.57s-2.84-.63-3.61-1.92-7-1.94-11.9,3.23a31.74,31.74,0,0,0-7,10.75c-.39,1-1.29,4.13,4.14,4.13s12.94-4.27,15-8.15a7.76,7.76,0,0,0,1.42-4.14A5.42,5.42,0,0,1,305.81,132.57Z"/><path class="cls-2" d="M55.17,163c0,15.47-2.67,24.16-11.23,24.16-7.87,0-11.16-7.12-11.16-24.16,0-17.25,4.11-23.55,11.36-23.55S55.17,145.8,55.17,163ZM34,162.91c0,16.7,3.22,23.07,9.93,23.07,7.94,0,10-9,10-23,0-15.13-2.73-22.39-9.92-22.39C37.64,140.59,34,146.48,34,162.91Z"/><path class="cls-2" d="M63.38,140.05h1.23v25.46c3.83-5.27,12.39-17.45,18-25.46h1.44L70.16,159.62l15,26.91H83.71L69.4,160.65l-4.79,6.57v19.31H63.38Z"/><path class="cls-2" d="M350.26,111.24c0,13.48-4,17.73-9.52,17.73s-9.58-4-9.58-17.8,4.65-17.59,9.65-17.59C346.63,93.58,350.26,97.82,350.26,111.24Zm-17.87-.07c0,12.32,3.36,16.63,8.28,16.63,5.89,0,8.36-5.54,8.36-16.56,0-11.77-2.81-16.5-8.42-16.5C336.29,94.74,332.39,98.3,332.39,111.17Z"/><path class="cls-2" d="M383.25,105.9c0-6.53,0-9.84-.06-11.12a.59.59,0,0,1,.58-.59h0a.6.6,0,0,1,.59.58c0,.6,0,1.64,0,3a.82.82,0,0,0,1.51.43,9.29,9.29,0,0,1,7.4-4.65h0v1.11a.13.13,0,0,1-.11.14c-5.54.8-8.72,5.51-8.72,13.67v19.92h-1.23Z"/><path class="cls-2" d="M397.83,102.55c0-4.17-.06-6.69-.13-8.27a.09.09,0,0,1,.09-.09h1a.09.09,0,0,1,.09.09c0,.28.05,1.14.09,2.34a.67.67,0,0,0,1.24.34,7.18,7.18,0,0,1,6.4-3.38,6.61,6.61,0,0,1,6.41,3.9,1,1,0,0,0,1.7.07,7.6,7.6,0,0,1,7-4c3.43,0,7.47,1.37,7.47,9.24v25.6H428V103c0-4.8-1.57-8.29-6.29-8.29-5.21,0-7.53,4.52-7.53,10.89v22.79h-1.24V103.5c0-5.68-2.19-8.76-6.29-8.76-5.55,0-7.53,5.62-7.53,10.82v22.86h-1.24Zm-13.35,25.87a.6.6,0,0,1-.61.59.59.59,0,1,1,0-1.18A.6.6,0,0,1,384.48,128.42Zm14.59,0a.6.6,0,0,1-.61.59.59.59,0,1,1,0-1.18A.6.6,0,0,1,399.07,128.42Z"/><path class="cls-2" d="M440.73,110.35a3.3,3.3,0,0,0-3.29,3.42c.34,9.21,2.72,14,8.11,14,6.14,0,7.27-5.9,7.53-7.9,0-.3.26-1.23.59-.51h.71c-.07.88-.89,9.58-8.83,9.58-8.9,0-9.38-10.75-9.38-18.14,0-11,3.28-17.25,9.38-17.25,6.91,0,9.1,5.47,9.1,15.19h0a1.57,1.57,0,0,1-1.57,1.58Zm9.43-1.1a3.16,3.16,0,0,0,3.17-3.33c-.36-6.53-2.08-11.18-7.78-11.18-5.23,0-7.17,5.48-7.84,10.49a3.53,3.53,0,0,0,3.5,4Z"/><ellipse class="cls-2" cx="453.78" cy="119.47" rx="0.62" ry="0.59"/><ellipse class="cls-1" cx="393.31" cy="94.17" rx="0.62" ry="0.59"/><ellipse class="cls-1" cx="373.99" cy="128.42" rx="0.56" ry="0.59"/><path class="cls-2" d="M432.3,87.89c3.82-.41,7.64-.63,11.47-.77s7.64-.21,11.47-.22,7.64.06,11.47.21,7.64.37,11.47.78c-3.83.42-7.65.64-11.47.78s-7.65.21-11.47.22-7.65-.06-11.47-.22S436.12,88.31,432.3,87.89Z"/><circle class="cls-1" cx="413.56" cy="128.19" r="0.66"/><path class="cls-2" d="M320.64,72.1l12.8,1.29,1.43-4.14a2,2,0,0,0-2.07-2.2c-2.33-.13-2.81-4.16-2.81-4.16a6.17,6.17,0,0,1-4.95,4C321.28,67.31,320.64,72.1,320.64,72.1Z"/></g></svg>