<svg xmlns="http://www.w3.org/2000/svg" viewBox="0 0 481.78 352.83"><defs><style>.cls-1{fill:#d79d66;}.cls-2{fill:#e0bd83;stroke:#d79d66;stroke-miterlimit:10;}.cls-3{fill:#db944b;}</style></defs><g id="logo_beige" data-name="logo beige"><ellipse class="cls-1" cx="428.49" cy="128.64" rx="0.62" ry="0.59"/><ellipse class="cls-1" cx="398.24" cy="94.39" rx="0.62" ry="0.59"/><path class="cls-1" d="M374.41,120.22c0,3.31.06,6,.06,8.19,0,.78-.33.78-.76.78h0c-.09,0-.28-.05-.37-.38a3.11,3.11,0,0,1,0-.72c0-.73-.06-1.81-.09-2.89a.59.59,0,0,0-1.13-.24,7.34,7.34,0,0,1-7.11,4.23c-4,0-7.66-1.85-7.66-10.06V95l.25-.24a.51.51,0,0,1,.71,0l.27.25v24.13c0,4.72,1.1,8.83,6.5,8.83,4.59,0,8.15-3.15,8.15-13.56V94.94a1.76,1.76,0,0,1,.62-.24.62.62,0,0,1,.61.31Z"/><circle class="cls-1" cx="373.8" cy="94.98" r="0.62"/><ellipse class="cls-1" cx="357.91" cy="94.98" rx="0.62" ry="0.59"/><path class="cls-1" d="M29.56,76.48a124.08,124.08,0,0,1,8.92-24.94A94.91,94.91,0,0,1,53.08,29.2,59.44,59.44,0,0,1,75,13.34,92.59,92.59,0,0,1,101.42,7.5a155.36,155.36,0,0,1,26.94.13A166.45,166.45,0,0,1,155,12.15,109.58,109.58,0,0,1,180.56,22a58.66,58.66,0,0,1,6,3.85c1,.73,1.93,1.49,2.86,2.32a36.11,36.11,0,0,1,2.65,2.58,46.28,46.28,0,0,1,4.61,5.59,40.76,40.76,0,0,1,3.76,6.36A35.81,35.81,0,0,1,204,57.36a33.46,33.46,0,0,1-3.18,15,39,39,0,0,1-9.06,12.14,45.12,45.12,0,0,1-5.87,4.57c-.52.37-1,.64-1.49,1l-1.43.88c-1,.66-2.06,1.23-3.08,1.81a149.83,149.83,0,0,1-25.24,10.81,185.85,185.85,0,0,1-26.47,6.59A201.27,201.27,0,0,1,73.86,112a234.1,234.1,0,0,1-53-11.63l8.7-4-.44,1.22L28.61,99c-.3.92-.6,1.84-.89,2.78q-.86,2.8-1.6,5.69c-1,3.83-1.86,7.7-2.58,11.61a181.18,181.18,0,0,0-2.77,23.68,164,164,0,0,0,4.3,47.14,152.18,152.18,0,0,0,18.07,43.53,171.94,171.94,0,0,0,30.22,36.51A234.7,234.7,0,0,0,112,298.48a272.38,272.38,0,0,0,43.28,21.31,243.59,243.59,0,0,0,46.4,12.71,237.2,237.2,0,0,0,23.92,2.72c8,.44,16.07.58,24.1.22a244.35,244.35,0,0,0,47.77-6.85,267,267,0,0,0,45.86-15.78l5.61-2.53c1.87-.85,3.64-1.69,5.45-2.58C358,305.93,361.51,304,365,302a226.13,226.13,0,0,0,20.32-13.19,210.67,210.67,0,0,0,18.8-15.31A194.23,194.23,0,0,0,421,256.1a185,185,0,0,0,26.44-40.61A173.41,173.41,0,0,0,461.93,169a197.88,197.88,0,0,0,1.88-49,196.86,196.86,0,0,0-10-48.33,161.75,161.75,0,0,1,7.84,23.58,206.85,206.85,0,0,1,4.74,24.47,200.44,200.44,0,0,1,.28,50,182,182,0,0,1-39.13,91.83,204.37,204.37,0,0,1-17,18.75,220.12,220.12,0,0,1-40.08,31c-3.62,2.19-7.32,4.29-11.09,6.26-1.88,1-3.83,2-5.71,2.86L348,323.1a278.06,278.06,0,0,1-47.48,17.57,250.93,250.93,0,0,1-50.19,8.1,243.84,243.84,0,0,1-100.22-15.42,284.78,284.78,0,0,1-45.8-22.16A249.12,249.12,0,0,1,63.21,280.9a193.63,193.63,0,0,1-17.79-18.65,177.05,177.05,0,0,1-15-21.08,165,165,0,0,1-19.68-47.84A178.57,178.57,0,0,1,6.37,142,187.5,187.5,0,0,1,9.63,116.4q1.24-6.33,2.94-12.57c.57-2.09,1.18-4.16,1.84-6.24.33-1,.68-2.07,1-3.11L16,92.9l.65-1.68L19,85l6.34,2.23A228.24,228.24,0,0,0,75.24,99a196.55,196.55,0,0,0,25.55,1.29,187.57,187.57,0,0,0,25.5-2,174.09,174.09,0,0,0,24.93-5.6,138.71,138.71,0,0,0,23.53-9.42c.91-.48,1.83-1,2.66-1.47l1.4-.83c.45-.26.93-.52,1.32-.79a35,35,0,0,0,4.63-3.42,28.8,28.8,0,0,0,6.9-8.74,24.49,24.49,0,0,0,.3-21.39,31.24,31.24,0,0,0-2.78-5.1,40.7,40.7,0,0,0-3.64-4.72,29,29,0,0,0-2-2.1c-.69-.66-1.44-1.29-2.21-1.91a50.27,50.27,0,0,0-5-3.44,101.69,101.69,0,0,0-23.36-9.8,165.2,165.2,0,0,0-25.29-5.33A150.13,150.13,0,0,0,101.79,13a91.48,91.48,0,0,0-25.26,4.42A55.88,55.88,0,0,0,55.28,31.27a97,97,0,0,0-15.37,21A129.74,129.74,0,0,0,29.56,76.48Z"/><path class="cls-1" d="M88.8,128.88a6,6,0,0,1,1.35,2.4A11.71,11.71,0,0,1,90.7,134a15.8,15.8,0,0,1-.68,5.31,40.88,40.88,0,0,1-1.6,5l-1.06,2.4L86.18,149l-.18-.08.79-2.47.68-2.48a39.77,39.77,0,0,0,1-5c.23-1.68.13-3.36.25-5a30.19,30.19,0,0,0-.07-5Z"/><path class="cls-1" d="M128.67,288.62a65.53,65.53,0,0,0,9.09,7.73c.81.57,1.6,1.17,2.42,1.73l2.49,1.62c1.64,1.12,3.4,2.06,5.09,3.09a139.75,139.75,0,0,0,21.62,9.82l5.63,1.93c1.88.63,3.82,1.08,5.72,1.64,3.79,1.2,7.7,1.92,11.57,2.86,1.92.51,3.9.75,5.85,1.12l5.88,1.07c3.94.59,7.91,1,11.87,1.63-2-.07-4-.17-6-.29s-4-.2-6-.37l-6-.74c-2-.27-4-.46-5.95-.89-3.94-.76-7.9-1.45-11.76-2.56-1.94-.53-3.9-1-5.81-1.61l-5.72-1.91A117.17,117.17,0,0,1,147,304.12c-1.68-1.11-3.43-2.11-5-3.34L139.51,299c-.8-.6-1.57-1.25-2.35-1.88A56.86,56.86,0,0,1,128.67,288.62Z"/><path class="cls-1" d="M328.65,67.94a54,54,0,0,0,1-14.31,45.75,45.75,0,0,0-2.77-13.71,39,39,0,0,0-6.85-11.71,43.88,43.88,0,0,0-10.28-8.69c-7.7-4.83-16.4-7.59-24.68-6.47A33.33,33.33,0,0,0,273.29,17a44.92,44.92,0,0,0-10.11,7.82,52.49,52.49,0,0,0-4.28,4.94q-2.08,2.67-4,5.51a106.34,106.34,0,0,0-6.82,11.82,135.15,135.15,0,0,0-9.55,25.78A152.08,152.08,0,0,0,234,100.05a145.36,145.36,0,0,0,.32,27.52A123.56,123.56,0,0,0,240,154.22a97.18,97.18,0,0,0,11.85,24.1,61,61,0,0,0,8.35,10,38.89,38.89,0,0,0,10.06,7.07,29.39,29.39,0,0,0,11.45,2.86,31.66,31.66,0,0,0,12-1.93A45.36,45.36,0,0,0,305,190.22a67.25,67.25,0,0,0,10-9,91.33,91.33,0,0,0,15-23.09A109.89,109.89,0,0,0,335.1,145l.51-1.69.25-.85a1.92,1.92,0,0,0,.09-.32,1.52,1.52,0,0,0,0-.67,1.79,1.79,0,0,0-.13-.32l-.09-.15-.06-.07-.14-.15a28.82,28.82,0,0,0-5.16-4.26,28.44,28.44,0,0,0-12.9-4.42,37.79,37.79,0,0,0-14.14,1.52,36.72,36.72,0,0,1,14.2-3.73,31.56,31.56,0,0,1,21.38,7.26l.19.17.27.25a6.28,6.28,0,0,1,.49.54,6.61,6.61,0,0,1,.79,1.23,6.88,6.88,0,0,1,.7,2.85,7.22,7.22,0,0,1-.12,1.48l-.17.91-.34,1.83a106.21,106.21,0,0,1-3.92,14.43,93.91,93.91,0,0,1-14.33,26.63,70.94,70.94,0,0,1-10.81,11.19A55.25,55.25,0,0,1,298,207.12a43.54,43.54,0,0,1-16.32,3.5A41,41,0,0,1,265,207.3a51.12,51.12,0,0,1-14-8.93,74.72,74.72,0,0,1-10.64-11.88A106.53,106.53,0,0,1,226.07,159a133.23,133.23,0,0,1-6.67-29.87,157.36,157.36,0,0,1-.2-30.38A161.32,161.32,0,0,1,224.84,69,138.57,138.57,0,0,1,236.41,40.9,112.49,112.49,0,0,1,244.66,28c1.53-2.06,3.14-4.07,4.84-6A63.33,63.33,0,0,1,255,16.26a53.35,53.35,0,0,1,13.38-9,41.74,41.74,0,0,1,15.9-4,40.14,40.14,0,0,1,8.21.48,42.05,42.05,0,0,1,7.81,2.11,52.85,52.85,0,0,1,13.58,7.72,49.06,49.06,0,0,1,10.71,11.14,41.38,41.38,0,0,1,6.17,14A50.18,50.18,0,0,1,328.65,67.94Z"/><path class="cls-1" d="M334,72c-1,2.58-2.19,5.06-3.42,7.52s-2.53,4.87-4,7.2a56.41,56.41,0,0,1-4.72,6.73,28.57,28.57,0,0,1-5.95,5.62,28.09,28.09,0,0,0,5.55-5.92,56.56,56.56,0,0,0,4.25-6.92c1.29-2.39,2.43-4.85,3.49-7.34s2-5,2.9-7.56Z"/><path class="cls-1" d="M330.15,71.57c-1,2.5-2.2,4.9-3.44,7.29s-2.54,4.71-4,7A54.52,54.52,0,0,1,318,92.31a28.18,28.18,0,0,1-5.91,5.37A28,28,0,0,0,317.6,92a54.31,54.31,0,0,0,4.26-6.68c1.29-2.31,2.44-4.7,3.5-7.11s2.06-4.88,2.91-7.34Z"/><path class="cls-1" d="M327.37,69.44c-1.05,2.5-2.21,4.9-3.44,7.29s-2.54,4.71-4,7a55.65,55.65,0,0,1-4.73,6.48,27.91,27.91,0,0,1-5.91,5.37,27.77,27.77,0,0,0,5.52-5.68,54.31,54.31,0,0,0,4.26-6.68c1.28-2.31,2.43-4.69,3.5-7.11s2.06-4.88,2.91-7.34Z"/><path class="cls-1" d="M323,72c-.94,2.13-2,4.15-3.09,6.16s-2.28,4-3.58,5.87a46,46,0,0,1-4.21,5.42,24.61,24.61,0,0,1-5.19,4.42,24.06,24.06,0,0,0,4.81-4.75,47,47,0,0,0,3.75-5.62c1.13-2,2.14-4,3.08-6s1.82-4.14,2.57-6.22Z"/><path class="cls-1" d="M305.74,132.79s-2.84-.63-3.62-1.92-7-1.94-11.9,3.23a31.74,31.74,0,0,0-7,10.75c-.39,1-1.29,4.13,4.14,4.13s12.94-4.27,15-8.15a7.76,7.76,0,0,0,1.42-4.14A5.45,5.45,0,0,1,305.74,132.79Z"/><path class="cls-2" d="M55.09,163.2c0,15.47-2.67,24.16-11.23,24.16-7.87,0-11.16-7.12-11.16-24.16,0-17.25,4.11-23.55,11.37-23.55S55.09,146,55.09,163.2Zm-21.16-.07c0,16.7,3.22,23.07,9.93,23.07,7.94,0,10-9,10-23,0-15.13-2.73-22.38-9.92-22.38C37.56,140.82,33.93,146.7,33.93,163.13Z"/><path class="cls-2" d="M63.3,140.27h1.23v25.46c3.84-5.27,12.39-17.45,18-25.46H84L70.08,159.85l15,26.9H83.63L69.32,160.87l-4.79,6.57v19.31H63.3Z"/><path class="cls-1" d="M350.18,111.46c0,13.49-4,17.73-9.52,17.73s-9.58-4-9.58-17.8,4.66-17.59,9.65-17.59C346.55,93.8,350.18,98,350.18,111.46Zm-17.87-.07c0,12.32,3.36,16.64,8.29,16.64,5.88,0,8.35-5.55,8.35-16.57,0-11.77-2.81-16.5-8.42-16.5C336.21,95,332.31,98.52,332.31,111.39Z"/><path class="cls-1" d="M383.17,106.12c0-6.52,0-9.84-.06-11.12a.58.58,0,0,1,.58-.58h0a.59.59,0,0,1,.59.57c0,.6,0,1.64,0,3a.82.82,0,0,0,1.51.43,9.29,9.29,0,0,1,7.41-4.65h0v1.12a.14.14,0,0,1-.12.13c-5.54.8-8.71,5.51-8.71,13.67v19.92h-1.24Z"/><path class="cls-1" d="M397.75,102.77c0-4.17-.06-6.69-.13-8.27a.08.08,0,0,1,.09-.08h1.05a.08.08,0,0,1,.09.08c0,.28,0,1.14.09,2.35a.67.67,0,0,0,1.24.33,7.18,7.18,0,0,1,6.4-3.38A6.6,6.6,0,0,1,413,97.7a1,1,0,0,0,1.7.07,7.6,7.6,0,0,1,6.95-4c3.43,0,7.47,1.37,7.47,9.24v25.6h-1.24V103.25c0-4.8-1.57-8.29-6.29-8.29-5.21,0-7.53,4.52-7.53,10.89v22.79h-1.24V103.73c0-5.69-2.19-8.77-6.29-8.77C401,95,399,100.58,399,105.78v22.86h-1.24Zm-13.34,25.87a.62.62,0,0,1-1.24,0,.62.62,0,0,1,1.24,0Zm14.58,0a.6.6,0,0,1-.61.59.6.6,0,0,1-.62-.59.61.61,0,0,1,.62-.59A.6.6,0,0,1,399,128.64Z"/><path class="cls-1" d="M440.65,110.57a3.3,3.3,0,0,0-3.29,3.42c.34,9.21,2.72,14,8.11,14,6.14,0,7.27-5.91,7.53-7.91,0-.29.26-1.22.59-.51h.71c-.07.89-.89,9.58-8.83,9.58-8.9,0-9.38-10.75-9.38-18.14,0-11,3.29-17.25,9.38-17.25,6.91,0,9.1,5.48,9.1,15.2h0a1.57,1.57,0,0,1-1.57,1.57Zm9.43-1.09a3.18,3.18,0,0,0,3.18-3.34c-.37-6.52-2.08-11.18-7.79-11.18-5.23,0-7.17,5.48-7.84,10.49a3.54,3.54,0,0,0,3.5,4Z"/><ellipse class="cls-1" cx="453.7" cy="119.69" rx="0.62" ry="0.59"/><ellipse class="cls-1" cx="393.24" cy="94.39" rx="0.62" ry="0.59"/><ellipse class="cls-1" cx="373.91" cy="128.64" rx="0.56" ry="0.59"/><path class="cls-3" d="M432.22,88.12c3.82-.42,7.64-.63,11.47-.78s7.64-.2,11.47-.22,7.64.06,11.47.22,7.65.36,11.47.78c-3.82.41-7.65.63-11.47.78s-7.65.2-11.47.22-7.65-.07-11.47-.23S436,88.53,432.22,88.12Z"/><circle class="cls-1" cx="413.48" cy="128.42" r="0.66"/><path class="cls-1" d="M320.56,72.32l12.8,1.29,1.43-4.14a2,2,0,0,0-2.07-2.2c-2.33-.13-2.81-4.16-2.81-4.16a6.16,6.16,0,0,1-5,4C321.2,67.53,320.56,72.32,320.56,72.32Z"/></g></svg>