<svg xmlns="http://www.w3.org/2000/svg" xmlns:xlink="http://www.w3.org/1999/xlink" viewBox="0 0 288 302"><defs><style>.cls-1{fill:url(#Dégradé_sans_nom_16);}.cls-2{fill:#fff;stroke:#d79d66;stroke-miterlimit:10;}</style><linearGradient id="Dégradé_sans_nom_16" x1="140.39" y1="12.09" x2="141.63" y2="297.9" gradientUnits="userSpaceOnUse"><stop offset="0.03" stop-color="#d79d66"/><stop offset="1" stop-color="#62615c"/></linearGradient></defs><g id="Calque_3" data-name="Calque 3"><path class="cls-1" d="M50.76,11H272.24a4,4,0,0,1,4,4V250.52a45,45,0,0,1-45,45H9.76a4,4,0,0,1-4-4V56A45,45,0,0,1,50.76,11Z"/><path class="cls-2" d="M56.7,3.84H278.17a4,4,0,0,1,4,4V243.35a45,45,0,0,1-45,45H15.7a4,4,0,0,1-4-4V48.84A45,45,0,0,1,56.7,3.84Z"/></g></svg>